STARTFONT 2.1
COMMENT
COMMENT Converted from OpenType font "manrope-extrabold.otf" by "otf2bdf 3.0".
COMMENT
FONT -FreeType-Manrope ExtraBold-Medium-R-Normal--42-300-100-100-P-204-ISO10646-1
SIZE 30 100 100
FONTBOUNDINGBOX 43 53 -2 -10
STARTPROPERTIES 19
FOUNDRY "FreeType"
FAMILY_NAME "Manrope ExtraBold"
WEIGHT_NAME "Medium"
SLANT "R"
SETWIDTH_NAME "Normal"
ADD_STYLE_NAME ""
PIXEL_SIZE 42
POINT_SIZE 300
RESOLUTION_X 100
RESOLUTION_Y 100
SPACING "P"
AVERAGE_WIDTH 204
CHARSET_REGISTRY "ISO10646"
CHARSET_ENCODING "1"
FONT_ASCENT 44
FONT_DESCENT 12
COPYRIGHT "Copyright 2019-2021 The Manrope Project Authors (https://github.com/sharanda/manrope)"
_OTF_FONTFILE "manrope-extrabold.otf"
_OTF_PSNAME "Manrope-ExtraBold"
ENDPROPERTIES
CHARS 191
STARTCHAR 0020
ENCODING 32
SWIDTH 192 0
DWIDTH 8 0
BBX 0 0 0 0
BITMAP
ENDCHAR
STARTCHAR 0021
ENCODING 33
SWIDTH 384 0
DWIDTH 16 0
BBX 6 30 5 0
BITMAP
FC
FC
FC
FC
FC
FC
FC
FC
FC
FC
FC
FC
FC
FC
FC
FC
FC
FC
FC
FC
FC
FC
FC
00
00
FC
FC
FC
FC
FC
ENDCHAR
STARTCHAR 0022
ENCODING 34
SWIDTH 504 0
DWIDTH 21 0
BBX 14 8 2 22
BITMAP
FC7C
FC7C
FC7C
FC7C
FC7C
FC7C
FC7C
FC7C
ENDCHAR
STARTCHAR 0023
ENCODING 35
SWIDTH 936 0
DWIDTH 39 0
BBX 33 30 3 0
BITMAP
0007C1F000
000FC3F000
000F83E000
000F83E000
001F87E000
001F87E000
001F07C000
1FFFFFFF80
1FFFFFFF80
1FFFFFFF80
1FFFFFFF80
3FFFFFFF00
007E1F8000
007C1F0000
007C1F0000
00FC3F0000
00FC3F0000
7FFFFFFE00
FFFFFFFC00
FFFFFFFC00
FFFFFFFC00
FFFFFFFC00
01F07C0000
03F0FC0000
03F0FC0000
03E0F80000
03E0F80000
07E1F80000
07C1F00000
07C1F00000
ENDCHAR
STARTCHAR 0024
ENCODING 36
SWIDTH 648 0
DWIDTH 27 0
BBX 23 38 2 -4
BITMAP
007C00
007C00
007C00
007C00
01FF00
07FFC0
1FFFE0
3FFFF0
3FFFF8
7F03FC
7E01FC
7C00FE
7C007C
7E0000
7F0000
7FE000
3FFE00
1FFFC0
0FFFF0
07FFF8
00FFFC
001FFC
0001FE
00007E
78007E
FC007E
FC007E
FE00FE
7F81FC
7FFFFC
3FFFF8
1FFFF0
07FFE0
01FF80
007C00
007C00
007C00
007C00
ENDCHAR
STARTCHAR 0025
ENCODING 37
SWIDTH 912 0
DWIDTH 38 0
BBX 33 30 2 0
BITMAP
07E0001800
0FF0003C00
3FFC007E00
3FFC00FF00
7FFE01FE00
7C3E03FC00
781E07F800
F81E0FF000
7C3E1FE000
7FFE3FC000
3FFC7F8000
3FFCFF0000
1FF9FE0000
07E3FC0000
0007F80000
000FF0E000
001FE7FC00
003FCFFE00
007F9FFF00
00FF1FFF00
01FE3F1F80
03FC3E0F80
07F83E0F80
0FF03E0F80
1FE03F1F80
3FC01FFF00
3F801FFF00
1F000FFE00
0E0007FC00
040001F000
ENDCHAR
STARTCHAR 0026
ENCODING 38
SWIDTH 672 0
DWIDTH 28 0
BBX 25 30 2 0
BITMAP
01FE0000
07FF8000
0FFFC000
1FFFE000
3FFFF000
3FC7F000
3F03F800
3E010000
7E000000
3E000000
3F000000
3F800000
1FC00000
0FE00000
1FF07C00
3FF87C00
7FFE7C00
7EFF7C00
FC7FFC00
FC1FFC00
FC0FFC00
FC07FC00
FC03FC00
FE01FC00
7FC7FF00
7FFFFF80
3FFFFF80
1FFFFF80
0FFFCF00
01FF0600
ENDCHAR
STARTCHAR 0027
ENCODING 39
SWIDTH 288 0
DWIDTH 12 0
BBX 6 8 2 22
BITMAP
FC
FC
FC
FC
FC
FC
FC
FC
ENDCHAR
STARTCHAR 0028
ENCODING 40
SWIDTH 456 0
DWIDTH 19 0
BBX 12 44 6 -8
BITMAP
0100
0380
03C0
07F0
0FE0
0FC0
1F80
1F80
3F00
3F00
3E00
7E00
7C00
7C00
7C00
FC00
F800
F800
F800
F800
F800
F800
F800
F800
F800
F800
F800
F800
FC00
FC00
7C00
7C00
7E00
3E00
3F00
3F00
1F00
1F80
0FC0
0FC0
07E0
07E0
0380
0100
ENDCHAR
STARTCHAR 0029
ENCODING 41
SWIDTH 456 0
DWIDTH 19 0
BBX 11 43 2 -7
BITMAP
3800
7C00
FC00
FE00
7E00
3F00
1F00
1F80
0F80
0FC0
0FC0
07C0
07C0
07E0
03E0
03E0
03E0
03E0
03E0
03E0
03E0
03E0
03E0
03E0
03E0
03E0
03E0
03E0
07E0
07C0
07C0
07C0
0FC0
0F80
1F80
1F00
3F00
7F00
7E00
FC00
FC00
3800
1000
ENDCHAR
STARTCHAR 002A
ENCODING 42
SWIDTH 480 0
DWIDTH 20 0
BBX 16 15 1 15
BITMAP
03E0
03E0
03E0
23C6
7FDE
7FFF
7FFF
FFFF
0FF8
0FF0
1FF8
3FFC
3E7E
1E38
0430
ENDCHAR
STARTCHAR 002B
ENCODING 43
SWIDTH 576 0
DWIDTH 24 0
BBX 19 19 2 6
BITMAP
00F000
00F000
00F000
00F000
00F000
00F000
00F000
00F000
FFFFE0
FFFFE0
FFFFE0
FFFFE0
00F000
00F000
00F000
00F000
00F000
00F000
00F000
ENDCHAR
STARTCHAR 002C
ENCODING 44
SWIDTH 312 0
DWIDTH 13 0
BBX 6 12 2 -6
BITMAP
FC
FC
FC
FC
FC
FC
1C
1C
1C
78
78
60
ENDCHAR
STARTCHAR 002D
ENCODING 45
SWIDTH 432 0
DWIDTH 18 0
BBX 13 4 2 11
BITMAP
FFF8
FFF8
FFF8
FFF8
ENDCHAR
STARTCHAR 002E
ENCODING 46
SWIDTH 312 0
DWIDTH 13 0
BBX 6 6 4 0
BITMAP
FC
FC
FC
FC
FC
FC
ENDCHAR
STARTCHAR 002F
ENCODING 47
SWIDTH 456 0
DWIDTH 19 0
BBX 13 30 3 0
BITMAP
01F8
01F8
01F8
01F0
03F0
03F0
03E0
07E0
07E0
07E0
07C0
0FC0
0FC0
0FC0
0F80
1F80
1F80
1F80
1F00
3F00
3F00
3E00
7E00
7E00
7E00
7C00
FC00
FC00
FC00
F800
ENDCHAR
STARTCHAR 0030
ENCODING 48
SWIDTH 672 0
DWIDTH 28 0
BBX 22 30 3 0
BITMAP
01FE00
07FF80
0FFFE0
3FFFF0
3FFFF0
7FCFF8
7F03F8
FE01FC
FC00FC
FC00FC
FC00FC
FC00FC
FC00FC
FC00FC
FC00FC
FC00FC
FC00FC
FC00FC
FC00FC
FC00FC
FC00FC
FC00FC
FE01FC
7F03F8
7FCFF8
3FFFF0
3FFFF0
0FFFE0
07FF80
01FE00
ENDCHAR
STARTCHAR 0031
ENCODING 49
SWIDTH 456 0
DWIDTH 19 0
BBX 12 30 2 0
BITMAP
07F0
0FF0
3FF0
FFF0
FFF0
FFF0
FFF0
F3F0
C3F0
83F0
03F0
03F0
03F0
03F0
03F0
03F0
03F0
03F0
03F0
03F0
03F0
03F0
03F0
03F0
03F0
03F0
03F0
03F0
03F0
03F0
ENDCHAR
STARTCHAR 0032
ENCODING 50
SWIDTH 600 0
DWIDTH 25 0
BBX 21 30 2 0
BITMAP
01FC00
07FF00
1FFFC0
3FFFE0
7FFFF0
7FCFF0
7E03F0
FE01F8
FC01F8
FC01F8
0001F8
0001F8
0003F8
0007F0
000FF0
001FE0
003FC0
007F80
00FF00
01FE00
07FC00
0FF800
1FE000
3FC000
7F8000
FFFFF8
FFFFF8
FFFFF8
FFFFF8
FFFFF8
ENDCHAR
STARTCHAR 0033
ENCODING 51
SWIDTH 600 0
DWIDTH 25 0
BBX 20 30 2 0
BITMAP
7FFFF0
7FFFF0
7FFFF0
7FFFF0
7FFFF0
0007E0
001FC0
003F80
007F00
00FE00
03FC00
07FE00
07FF00
03FFC0
03FFC0
01FFE0
0007E0
0003F0
0003F0
0003F0
0003F0
0803F0
FC03F0
FE07E0
FF9FE0
7FFFC0
3FFFC0
1FFF80
0FFE00
03F800
ENDCHAR
STARTCHAR 0034
ENCODING 52
SWIDTH 624 0
DWIDTH 26 0
BBX 22 30 2 0
BITMAP
007F00
007E00
00FE00
00FC00
01FC00
01F800
03F800
03F800
03F000
07F000
07E000
0FE000
0FC000
1FC7E0
1F87E0
3F87E0
3F07E0
7F07E0
7E07E0
FE07E0
FFFFFC
FFFFFC
FFFFFC
FFFFFC
FFFFFC
0007E0
0007E0
0007E0
0007E0
0007E0
ENDCHAR
STARTCHAR 0035
ENCODING 53
SWIDTH 600 0
DWIDTH 25 0
BBX 20 30 2 0
BITMAP
3FFFC0
3FFFC0
3FFFC0
3FFFC0
3FFFC0
3E0000
3E0000
3E0000
3E0000
3E0000
7E0000
7EFC00
7FFF00
7FFFC0
7FFFE0
7FFFE0
1E0FF0
0003F0
0003F0
0001F0
0001F0
0401F0
7C03F0
FE07F0
7F9FE0
7FFFE0
3FFFC0
1FFF80
0FFE00
01F800
ENDCHAR
STARTCHAR 0036
ENCODING 54
SWIDTH 624 0
DWIDTH 26 0
BBX 21 30 3 0
BITMAP
01FE00
07FF80
1FFFC0
3FFFC0
3FFF80
7FCF00
7F0200
FE0000
FC0000
FC0000
FC0000
FCFE00
FFFF80
FFFFC0
FFFFE0
FFFFF0
FF07F0
FE03F0
FC01F8
FC01F8
FC01F8
FC01F8
FC03F8
7E07F0
7FDFF0
3FFFE0
3FFFC0
1FFF80
07FF00
01FC00
ENDCHAR
STARTCHAR 0037
ENCODING 55
SWIDTH 552 0
DWIDTH 23 0
BBX 19 30 2 0
BITMAP
FFFFE0
FFFFE0
FFFFE0
FFFFE0
FFFFE0
000FE0
000FC0
000FC0
001F80
001F80
003F00
003F00
003F00
007E00
007E00
00FC00
00FC00
00FC00
01F800
01F800
03F000
03F000
07F000
07E000
07E000
0FC000
0FC000
1FC000
1F8000
1F8000
ENDCHAR
STARTCHAR 0038
ENCODING 56
SWIDTH 624 0
DWIDTH 26 0
BBX 21 30 2 0
BITMAP
01FC00
07FF80
0FFFC0
1FFFE0
3FFFF0
3FCFF0
7F03F0
7E03F8
7E01F8
7E03F8
3F03F0
3FFFF0
3FFFE0
1FFFE0
1FFFE0
3FFFF0
3FFFF0
7F03F8
7E01F8
7E01F8
FE01F8
7E01F8
7E01F8
7F03F8
7FCFF8
3FFFF0
1FFFE0
0FFFC0
07FF80
01FE00
ENDCHAR
STARTCHAR 0039
ENCODING 57
SWIDTH 624 0
DWIDTH 26 0
BBX 21 30 2 0
BITMAP
01FC00
07FF00
0FFF80
3FFFC0
3FFFE0
7FDFF0
7E03F0
FE03F8
FC01F8
FC01F8
FC01F8
FC01F8
FE03F8
7F07F8
7FFFF8
3FFFF8
1FFFF8
0FFFF8
03F9F8
0001F8
0001F8
0001F8
0003F8
0007F0
079FF0
0FFFE0
1FFFC0
3FFF80
0FFF00
03FC00
ENDCHAR
STARTCHAR 003A
ENCODING 58
SWIDTH 360 0
DWIDTH 15 0
BBX 5 18 5 2
BITMAP
F8
F8
F8
F8
F8
F8
00
00
00
00
00
00
F8
F8
F8
F8
F8
F8
ENDCHAR
STARTCHAR 003B
ENCODING 59
SWIDTH 360 0
DWIDTH 15 0
BBX 5 29 5 -6
BITMAP
F8
F8
F8
F8
F8
F8
00
00
00
00
00
00
00
00
00
00
00
F8
F8
F8
F8
F8
F8
18
38
38
F8
F0
C0
ENDCHAR
STARTCHAR 003C
ENCODING 60
SWIDTH 648 0
DWIDTH 27 0
BBX 13 20 6 3
BITMAP
0060
00F0
01F8
03F8
07F0
0FE0
1FC0
3F80
7F00
FE00
FE00
7F00
3F80
1FC0
0FE0
07F0
03F8
01F0
00E0
0040
ENDCHAR
STARTCHAR 003D
ENCODING 61
SWIDTH 744 0
DWIDTH 31 0
BBX 21 12 5 9
BITMAP
FFFFF8
FFFFF8
FFFFF8
FFFFF8
000000
000000
000000
000000
FFFFF8
FFFFF8
FFFFF8
FFFFF8
ENDCHAR
STARTCHAR 003E
ENCODING 62
SWIDTH 648 0
DWIDTH 27 0
BBX 14 20 7 3
BITMAP
1800
3C00
7E00
7F00
3F80
1FC0
0FE0
07F0
03F8
01FC
01F8
03F0
07E0
0FC0
1F80
3F00
FE00
7C00
3800
1000
ENDCHAR
STARTCHAR 003F
ENCODING 63
SWIDTH 552 0
DWIDTH 23 0
BBX 19 30 2 0
BITMAP
03F800
0FFF00
1FFF80
3FFFC0
7FFFC0
7F1FE0
FE07E0
FC07E0
0007E0
0007E0
0007E0
000FE0
000FC0
001FC0
007F80
00FF00
00FE00
01FC00
01F800
03F800
03F000
03F000
000000
000000
03F000
03F000
03F000
03F000
03F000
03F000
ENDCHAR
STARTCHAR 0040
ENCODING 64
SWIDTH 912 0
DWIDTH 38 0
BBX 32 31 3 -4
BITMAP
001FF000
007FFE00
01FFFF80
07FFFFE0
0FFE7FF0
0FE003F8
1F8001F8
3F0000FC
3E0FEE7E
7C3FFE3E
7C7FFE3E
7C7FFE1F
78FC3E1F
F8F81E1F
F8F81E1F
F8F01E1F
F8F01E1F
F8F81E1F
F8F81F1F
78FE7FFE
7C7FFFFE
7C3FFFFC
7E1FF7FC
3E07C3F0
3F000000
1FC00000
0FF00800
07FFF800
03FFF800
00FFFC00
003FFC00
ENDCHAR
STARTCHAR 0041
ENCODING 65
SWIDTH 672 0
DWIDTH 28 0
BBX 26 30 1 0
BITMAP
007FC000
007FC000
00FFC000
00FFE000
00FFE000
01FFE000
01FFE000
01FBF000
03F3F000
03F3F000
03F1F800
07E1F800
07E1F800
07E0FC00
07C0FC00
0FC0FC00
0FC07E00
0FC07E00
1F807E00
1FFFFE00
1FFFFF00
3FFFFF00
3FFFFF00
3FFFFF80
3E001F80
7E001F80
7E000FC0
7C000FC0
FC000FC0
FC0007C0
ENDCHAR
STARTCHAR 0042
ENCODING 66
SWIDTH 648 0
DWIDTH 27 0
BBX 22 30 3 0
BITMAP
FFFE00
FFFF80
FFFFE0
FFFFE0
FFFFF0
FC07F0
FC03F8
FC01F8
FC01F8
FC01F8
FC01F8
FC07F0
FFFFF0
FFFFE0
FFFFE0
FFFFF0
FFFFF8
FC01FC
FC00FC
FC00FC
FC007C
FC00FC
FC00FC
FC00FC
FC03FC
FFFFF8
FFFFF8
FFFFF0
FFFFE0
FFFF80
ENDCHAR
STARTCHAR 0043
ENCODING 67
SWIDTH 744 0
DWIDTH 31 0
BBX 28 30 1 0
BITMAP
001FE000
00FFFC00
03FFFE00
07FFFF80
0FFFFFC0
1FF8FFC0
3FC01FE0
3F8007F0
7F0003F0
7E0003F0
7E000100
7E000000
FC000000
FC000000
FC000000
FC000000
FC000000
FC000000
7E000000
7E000100
7E0003E0
7F0003F0
3F8007F0
3FC01FE0
1FF8FFC0
0FFFFFC0
07FFFF80
03FFFE00
00FFFC00
001FE000
ENDCHAR
STARTCHAR 0044
ENCODING 68
SWIDTH 720 0
DWIDTH 30 0
BBX 24 30 3 0
BITMAP
FFFE00
FFFFC0
FFFFE0
FFFFF0
FFFFF8
FC0FFC
FC01FC
FC00FE
FC007E
FC007F
FC003F
FC003F
FC003F
FC003F
FC003F
FC003F
FC003F
FC003F
FC003F
FC003F
FC007F
FC007E
FC00FE
FC01FC
FC0FFC
FFFFF8
FFFFF0
FFFFE0
FFFFC0
FFFE00
ENDCHAR
STARTCHAR 0045
ENCODING 69
SWIDTH 600 0
DWIDTH 25 0
BBX 20 30 3 0
BITMAP
FFFFF0
FFFFF0
FFFFF0
FFFFF0
FFFFF0
FC0000
FC0000
FC0000
FC0000
FC0000
FC0000
FC0000
FFFF80
FFFF80
FFFF80
FFFF80
FFFF80
FC0000
FC0000
FC0000
FC0000
FC0000
FC0000
FC0000
FC0000
FFFFF0
FFFFF0
FFFFF0
FFFFF0
FFFFF0
ENDCHAR
STARTCHAR 0046
ENCODING 70
SWIDTH 528 0
DWIDTH 22 0
BBX 18 30 3 0
BITMAP
FFFFC0
FFFFC0
FFFFC0
FFFFC0
FFFFC0
FFFFC0
FC0000
FC0000
FC0000
FC0000
FC0000
FC0000
FFFF00
FFFF00
FFFF00
FFFF00
FFFF00
FFFF00
FC0000
FC0000
FC0000
FC0000
FC0000
FC0000
FC0000
FC0000
FC0000
FC0000
FC0000
FC0000
ENDCHAR
STARTCHAR 0047
ENCODING 71
SWIDTH 744 0
DWIDTH 31 0
BBX 29 30 1 0
BITMAP
003FE000
00FFFC00
03FFFE00
07FFFF80
0FFFFF80
1FF8FFC0
3FC01FE0
3F800FE0
7F0007F0
7E0003F0
7E000300
7E000000
FC000000
FC000000
FC003FF8
FC003FF8
FC003FF8
FC003FF8
7E0003F0
7E0003F0
7E0003F0
7F0007F0
3F8007E0
3FC01FE0
1FF87FC0
0FFFFF80
07FFFF00
03FFFE00
00FFF800
001FE000
ENDCHAR
STARTCHAR 0048
ENCODING 72
SWIDTH 744 0
DWIDTH 31 0
BBX 25 30 3 0
BITMAP
FC001F80
FC001F80
FC001F80
FC001F80
FC001F80
FC001F80
FC001F80
FC001F80
FC001F80
FC001F80
FC001F80
FC001F80
FFFFFF80
FFFFFF80
FFFFFF80
FFFFFF80
FFFFFF80
FC001F80
FC001F80
FC001F80
FC001F80
FC001F80
FC001F80
FC001F80
FC001F80
FC001F80
FC001F80
FC001F80
FC001F80
FC001F80
ENDCHAR
STARTCHAR 0049
ENCODING 73
SWIDTH 288 0
DWIDTH 12 0
BBX 6 30 3 0
BITMAP
FC
FC
FC
FC
FC
FC
FC
FC
FC
FC
FC
FC
FC
FC
FC
FC
FC
FC
FC
FC
FC
FC
FC
FC
FC
FC
FC
FC
FC
FC
ENDCHAR
STARTCHAR 004A
ENCODING 74
SWIDTH 504 0
DWIDTH 21 0
BBX 18 30 0 0
BITMAP
000FC0
000FC0
000FC0
000FC0
000FC0
000FC0
000FC0
000FC0
000FC0
000FC0
000FC0
000FC0
000FC0
000FC0
000FC0
000FC0
000FC0
000FC0
000FC0
000FC0
000FC0
000FC0
1C0FC0
FC0FC0
FF3FC0
7FFF80
3FFF80
3FFF00
0FFE00
03F800
ENDCHAR
STARTCHAR 004B
ENCODING 75
SWIDTH 672 0
DWIDTH 28 0
BBX 24 30 3 0
BITMAP
FC007E
FC00FE
FC01FC
FC03F8
FC07F0
FC0FE0
FC0FC0
FC1FC0
FC3F80
FC7F00
FCFE00
FCFC00
FDF800
FFF000
FFF000
FFF000
FFF800
FDFC00
FDFE00
FCFF00
FC7F00
FC3F80
FC1FC0
FC0FE0
FC07F0
FC03F8
FC03FC
FC01FE
FC00FE
FC007F
ENDCHAR
STARTCHAR 004C
ENCODING 76
SWIDTH 552 0
DWIDTH 23 0
BBX 19 30 3 0
BITMAP
FC0000
FC0000
FC0000
FC0000
FC0000
FC0000
FC0000
FC0000
FC0000
FC0000
FC0000
FC0000
FC0000
FC0000
FC0000
FC0000
FC0000
FC0000
FC0000
FC0000
FC0000
FC0000
FC0000
FC0000
FC0000
FFFFE0
FFFFE0
FFFFE0
FFFFE0
FFFFE0
ENDCHAR
STARTCHAR 004D
ENCODING 77
SWIDTH 864 0
DWIDTH 36 0
BBX 30 30 3 0
BITMAP
F800007C
FC0000FC
FC0000FC
FE0001FC
FE0001FC
FF0003FC
FF0003FC
FF8007FC
FF8007FC
FFC00FFC
FFC00FFC
FFE01FFC
FFE01F7C
FBF03F7C
FBF03E7C
F9F87E7C
F9F87C7C
F8FCFC7C
F8FCFC7C
F87FF87C
F87FF87C
F83FF07C
F83FF07C
F81FE07C
F81FE07C
F80FC07C
F80FC07C
F807807C
F807807C
F803007C
ENDCHAR
STARTCHAR 004E
ENCODING 78
SWIDTH 720 0
DWIDTH 30 0
BBX 24 30 3 0
BITMAP
FC001F
FE001F
FE001F
FF001F
FF801F
FF801F
FFC01F
FFE01F
FFE01F
FFF01F
FFF81F
FDF81F
FDFC1F
FCFC1F
FC7E1F
FC7F1F
FC3F1F
FC1F9F
FC1FDF
FC0FDF
FC0FFF
FC07FF
FC03FF
FC03FF
FC01FF
FC00FF
FC00FF
FC007F
FC003F
FC003F
ENDCHAR
STARTCHAR 004F
ENCODING 79
SWIDTH 768 0
DWIDTH 32 0
BBX 29 30 1 0
BITMAP
001FE000
00FFFC00
03FFFE00
07FFFF80
0FFFFFC0
1FF8FFC0
3FC01FE0
3F8007F0
7F0003F0
7E0003F8
7E0001F8
7E0001F8
FC0001F8
FC0001F8
FC0001F8
FC0001F8
FC0001F8
FC0001F8
7E0001F8
7E0001F8
7E0003F8
7F0003F0
3F8007F0
3FC00FE0
1FF87FE0
0FFFFFC0
07FFFF80
03FFFE00
00FFFC00
001FE000
ENDCHAR
STARTCHAR 0050
ENCODING 80
SWIDTH 648 0
DWIDTH 27 0
BBX 23 30 3 0
BITMAP
FFFF00
FFFFE0
FFFFF0
FFFFF8
FFFFFC
FC03FC
FC00FC
FC007E
FC007E
FC007E
FC007E
FC007E
FC007E
FC00FC
FC03FC
FFFFFC
FFFFF8
FFFFF0
FFFFE0
FFFF80
FC0000
FC0000
FC0000
FC0000
FC0000
FC0000
FC0000
FC0000
FC0000
FC0000
ENDCHAR
STARTCHAR 0051
ENCODING 81
SWIDTH 768 0
DWIDTH 32 0
BBX 29 30 1 0
BITMAP
001FE000
00FFFC00
03FFFE00
07FFFF80
0FFFFFC0
1FF8FFC0
3FC01FE0
3F8007F0
7F0003F0
7E0003F8
7E0001F8
7E0001F8
FC0001F8
FC0001F8
FC0001F8
FC0001F8
FC0001F8
FC0001F8
7E0001F8
7E001DF8
7E003FF0
7F007FF0
3F803FF0
3FC01FE0
1FF87FE0
0FFFFFF0
07FFFFF8
03FFFFF0
00FFFCE0
001FE040
ENDCHAR
STARTCHAR 0052
ENCODING 82
SWIDTH 672 0
DWIDTH 28 0
BBX 23 30 3 0
BITMAP
FFFF00
FFFFE0
FFFFF0
FFFFF8
FFFFFC
FC03FC
FC00FC
FC007E
FC007E
FC007E
FC007E
FC007E
FC007E
FC00FC
FC03FC
FFFFFC
FFFFF8
FFFFF0
FFFFE0
FFFFC0
FC0FE0
FC07E0
FC07F0
FC03F0
FC03F8
FC01F8
FC01FC
FC00FC
FC00FE
FC007E
ENDCHAR
STARTCHAR 0053
ENCODING 83
SWIDTH 672 0
DWIDTH 28 0
BBX 24 30 2 0
BITMAP
00FF00
07FFC0
0FFFF0
1FFFF8
3FFFFC
7FC7FE
7F00FE
7E007F
7E007F
7E0000
7F0000
7FE000
3FFE00
1FFFC0
0FFFF8
03FFFC
007FFE
0007FF
0000FF
00003F
FC003F
FC003F
FE003F
7F007F
7FE3FE
3FFFFE
1FFFFC
0FFFF8
07FFE0
00FF80
ENDCHAR
STARTCHAR 0054
ENCODING 84
SWIDTH 600 0
DWIDTH 25 0
BBX 25 30 0 0
BITMAP
FFFFFF80
FFFFFF80
FFFFFF80
FFFFFF80
FFFFFF80
003F0000
003F0000
003F0000
003F0000
003F0000
003F0000
003F0000
003F0000
003F0000
003F0000
003F0000
003F0000
003F0000
003F0000
003F0000
003F0000
003F0000
003F0000
003F0000
003F0000
003F0000
003F0000
003F0000
003F0000
003F0000
ENDCHAR
STARTCHAR 0055
ENCODING 85
SWIDTH 720 0
DWIDTH 30 0
BBX 24 30 3 0
BITMAP
FC001F
FC001F
FC001F
FC001F
FC001F
FC001F
FC001F
FC001F
FC001F
FC001F
FC001F
FC001F
FC001F
FC001F
FC001F
FC001F
FC001F
FC001F
FC001F
FC003F
FC003F
FC003F
7E007F
7F00FE
7FE7FE
3FFFFC
1FFFF8
0FFFF0
03FFE0
00FF00
ENDCHAR
STARTCHAR 0056
ENCODING 86
SWIDTH 648 0
DWIDTH 27 0
BBX 27 30 0 0
BITMAP
FC0007E0
7E0007E0
7E000FC0
7E000FC0
3E000FC0
3F001F80
3F001F80
3F001F80
1F801F00
1F803F00
1F803F00
0FC03E00
0FC07E00
0FC07E00
07C07E00
07E0FC00
07E0FC00
03E0FC00
03F1F800
03F1F800
03F1F800
01F9F000
01FBF000
01FBF000
00FFF000
00FFE000
00FFE000
007FE000
007FC000
007FC000
ENDCHAR
STARTCHAR 0057
ENCODING 87
SWIDTH 984 0
DWIDTH 41 0
BBX 40 30 1 0
BITMAP
FC00FE003F
FC00FE007E
FC00FE007E
FC00FF007E
7E01FF007C
7E01FF00FC
7E01FF00FC
3E01FF80FC
3F03FF80F8
3F03FF81F8
3F03EF81F8
1F87EFC1F0
1F87EFC3F0
1F87E7C3F0
0F87C7E3F0
0FCFC7E3E0
0FCFC3E7E0
07CF83E7E0
07CF83F7C0
07FF83F7C0
07FF81FFC0
03FF01FF80
03FF01FF80
03FF00FF80
01FE00FF80
01FE00FF00
01FE00FF00
01FE007F00
00FC007E00
00FC007E00
ENDCHAR
STARTCHAR 0058
ENCODING 88
SWIDTH 672 0
DWIDTH 28 0
BBX 26 30 1 0
BITMAP
FE001FC0
7F003F80
7F003F80
3F807F00
1FC07E00
1FC0FE00
0FE1FC00
07E1F800
07F3F800
03FFF000
01FFE000
01FFE000
00FFC000
007F8000
007F8000
007F8000
00FFC000
00FFC000
01FFE000
03FFF000
03FBF000
07F3F800
0FE1FC00
0FE1FC00
1FC0FE00
3F807F00
3F807F00
7F003F80
FE001FC0
FE001FC0
ENDCHAR
STARTCHAR 0059
ENCODING 89
SWIDTH 624 0
DWIDTH 26 0
BBX 26 30 0 0
BITMAP
FE001FC0
7F001F80
7F003F80
3F803F00
1F807F00
1FC0FE00
0FC0FE00
0FE1FC00
07F1F800
07F3F800
03FBF000
01FFF000
01FFE000
00FFC000
00FFC000
007F8000
007F8000
003F0000
003F0000
003F0000
003F0000
003F0000
003F0000
003F0000
003F0000
003F0000
003F0000
003F0000
003F0000
003F0000
ENDCHAR
STARTCHAR 005A
ENCODING 90
SWIDTH 672 0
DWIDTH 28 0
BBX 24 30 2 0
BITMAP
7FFFFF
7FFFFF
7FFFFE
7FFFFE
7FFFFC
0003F8
0003F8
0007F0
000FF0
000FE0
001FC0
001FC0
003F80
007F80
007F00
00FF00
00FE00
01FC00
03FC00
03F800
07F800
07F000
0FE000
0FE000
1FC000
3FFFFF
3FFFFF
7FFFFF
7FFFFF
FFFFFF
ENDCHAR
STARTCHAR 005B
ENCODING 91
SWIDTH 432 0
DWIDTH 18 0
BBX 9 47 6 -9
BITMAP
FF80
FF80
FF80
FF80
FF80
F800
F800
F800
F800
F800
F800
F800
F800
F800
F800
F800
F800
F800
F800
F800
F800
F800
F800
F800
F800
F800
F800
F800
F800
F800
F800
F800
F800
F800
F800
F800
F800
F800
F800
F800
F800
F800
FF80
FF80
FF80
FF80
FF80
ENDCHAR
STARTCHAR 005C
ENCODING 92
SWIDTH 456 0
DWIDTH 19 0
BBX 13 30 3 0
BITMAP
F800
FC00
FC00
FC00
7C00
7E00
7E00
7E00
3E00
3F00
3F00
1F00
1F80
1F80
1F80
0F80
0FC0
0FC0
0FC0
07C0
07E0
07E0
07E0
03E0
03F0
03F0
01F0
01F8
01F8
01F8
ENDCHAR
STARTCHAR 005D
ENCODING 93
SWIDTH 432 0
DWIDTH 18 0
BBX 10 47 2 -9
BITMAP
FFC0
FFC0
FFC0
FFC0
FFC0
07C0
07C0
07C0
07C0
07C0
07C0
07C0
07C0
07C0
07C0
07C0
07C0
07C0
07C0
07C0
07C0
07C0
07C0
07C0
07C0
07C0
07C0
07C0
07C0
07C0
07C0
07C0
07C0
07C0
07C0
07C0
07C0
07C0
07C0
07C0
07C0
07C0
FFC0
FFC0
FFC0
FFC0
FFC0
ENDCHAR
STARTCHAR 005E
ENCODING 94
SWIDTH 696 0
DWIDTH 29 0
BBX 19 13 5 17
BITMAP
004000
00E000
01F000
03F800
07FC00
0FFE00
1FFF00
3FBF80
7F1FC0
FE0FE0
FC07E0
7803C0
300180
ENDCHAR
STARTCHAR 005F
ENCODING 95
SWIDTH 672 0
DWIDTH 28 0
BBX 28 4 0 -5
BITMAP
FFFFFFF0
FFFFFFF0
FFFFFFF0
FFFFFFF0
ENDCHAR
STARTCHAR 0060
ENCODING 96
SWIDTH 552 0
DWIDTH 23 0
BBX 7 8 7 33
BITMAP
F0
F8
78
78
3C
3C
3E
1E
ENDCHAR
STARTCHAR 0061
ENCODING 97
SWIDTH 576 0
DWIDTH 24 0
BBX 20 23 2 0
BITMAP
03FC00
0FFF00
1FFFC0
3FFFE0
7FFFE0
7F0FE0
3C03F0
0003F0
00FFF0
0FFFF0
3FFFF0
7FFFF0
FFF3F0
FF03F0
FC03F0
F803F0
F807F0
FC0FF0
FF7FF0
FFFFF0
7FFDF0
3FF9F0
0FE000
ENDCHAR
STARTCHAR 0062
ENCODING 98
SWIDTH 624 0
DWIDTH 26 0
BBX 21 30 3 0
BITMAP
FC0000
FC0000
FC0000
FC0000
FC0000
FC0000
FC0000
FDFC00
FFFF00
FFFFC0
FFFFE0
FFFFE0
FF0FF0
FC03F0
FC03F8
F801F8
F801F8
F801F8
F801F8
F801F8
F801F8
F801F8
FC03F8
FC03F0
FF0FF0
FFFFE0
FFFFE0
FFFFC0
FFFF00
F8FC00
ENDCHAR
STARTCHAR 0063
ENCODING 99
SWIDTH 576 0
DWIDTH 24 0
BBX 21 23 2 0
BITMAP
01FC00
07FF80
0FFFC0
1FFFE0
3FFFF0
7FCFF0
7E03F8
FE01F8
FC0180
FC0000
FC0000
FC0000
FC0000
FC0000
FC0000
FE01F0
7E03F8
7FCFF0
3FFFF0
3FFFE0
1FFFC0
07FF80
01FE00
ENDCHAR
STARTCHAR 0064
ENCODING 100
SWIDTH 624 0
DWIDTH 26 0
BBX 21 30 2 0
BITMAP
0001F8
0001F8
0001F8
0001F8
0001F8
0001F8
0001F8
01F9F8
07FFF8
1FFFF8
3FFFF8
3FFFF8
7F87F8
7E01F8
FE01F8
FC00F8
FC00F8
FC00F8
FC00F8
FC00F8
FC00F8
FC00F8
FE01F8
7E01F8
7F87F8
3FFFF8
3FFFF8
1FFFF8
07FFF8
01F8F8
ENDCHAR
STARTCHAR 0065
ENCODING 101
SWIDTH 600 0
DWIDTH 25 0
BBX 22 23 2 0
BITMAP
01FC00
07FF80
0FFFC0
1FFFE0
3FFFF0
7F03F0
7E01F8
FC01F8
FC00F8
FFFFFC
FFFFFC
FFFFFC
FFFFFC
FC0000
FC0000
FE0180
7E01F8
7FC7F8
3FFFF0
1FFFF0
0FFFC0
07FF80
00FE00
ENDCHAR
STARTCHAR 0066
ENCODING 102
SWIDTH 384 0
DWIDTH 16 0
BBX 15 30 1 0
BITMAP
00FE
03FE
07FE
0FFE
0FFE
0FC0
0F80
FFFE
FFFE
FFFE
FFFE
0F80
0F80
0F80
0F80
0F80
0F80
0F80
0F80
0F80
0F80
0F80
0F80
0F80
0F80
0F80
0F80
0F80
0F80
0F80
ENDCHAR
STARTCHAR 0067
ENCODING 103
SWIDTH 624 0
DWIDTH 26 0
BBX 21 33 2 -10
BITMAP
01FCF8
07FFF8
1FFFF8
3FFFF8
3FFFF8
7F87F8
7E01F8
FE01F8
FC00F8
FC00F8
FC00F8
FC00F8
FC00F8
FC00F8
FC00F8
FE01F8
7E01F8
7F87F8
3FFFF8
3FFFF8
1FFFF8
07FFF8
01F9F8
0001F8
0001F8
0001F8
0703F8
1F9FF8
3FFFF0
1FFFF0
0FFFE0
07FF80
01FE00
ENDCHAR
STARTCHAR 0068
ENCODING 104
SWIDTH 648 0
DWIDTH 27 0
BBX 21 30 3 0
BITMAP
F80000
F80000
F80000
F80000
F80000
F80000
F80000
F87E00
F9FF80
FFFFE0
FFFFE0
FFFFF0
FF8FF0
FE03F8
FC03F8
FC01F8
FC01F8
FC01F8
FC01F8
FC01F8
FC01F8
FC01F8
FC01F8
FC01F8
FC01F8
FC01F8
FC01F8
FC01F8
FC01F8
FC01F8
ENDCHAR
STARTCHAR 0069
ENCODING 105
SWIDTH 288 0
DWIDTH 12 0
BBX 6 30 3 0
BITMAP
FC
FC
FC
FC
FC
00
00
FC
FC
FC
FC
FC
FC
FC
FC
FC
FC
FC
FC
FC
FC
FC
FC
FC
FC
FC
FC
FC
FC
FC
ENDCHAR
STARTCHAR 006A
ENCODING 106
SWIDTH 312 0
DWIDTH 13 0
BBX 10 40 0 -10
BITMAP
0FC0
0FC0
0FC0
0FC0
0FC0
0000
0000
0FC0
0FC0
0FC0
0FC0
0FC0
0FC0
0FC0
0FC0
0FC0
0FC0
0FC0
0FC0
0FC0
0FC0
0FC0
0FC0
0FC0
0FC0
0FC0
0FC0
0FC0
0FC0
0FC0
0FC0
0FC0
0FC0
1FC0
3FC0
FF80
FF80
FF80
FF00
FC00
ENDCHAR
STARTCHAR 006B
ENCODING 107
SWIDTH 552 0
DWIDTH 23 0
BBX 20 30 3 0
BITMAP
FC0000
FC0000
FC0000
FC0000
FC0000
FC0000
FC0000
FC07F0
FC0FE0
FC0FE0
FC1FC0
FC3F80
FC7F00
FC7F00
FCFE00
FDFC00
FDFC00
FFF800
FFF000
FFF800
FDFC00
FDFC00
FCFE00
FC7F00
FC3F80
FC3F80
FC1FC0
FC0FE0
FC0FF0
FC07F0
ENDCHAR
STARTCHAR 006C
ENCODING 108
SWIDTH 288 0
DWIDTH 12 0
BBX 6 30 3 0
BITMAP
FC
FC
FC
FC
FC
FC
FC
FC
FC
FC
FC
FC
FC
FC
FC
FC
FC
FC
FC
FC
FC
FC
FC
FC
FC
FC
FC
FC
FC
FC
ENDCHAR
STARTCHAR 006D
ENCODING 109
SWIDTH 912 0
DWIDTH 38 0
BBX 33 23 3 0
BITMAP
F8FC03F000
FBFF0FFC00
FFFF9FFE00
FFFFFFFF00
FFFFFFFF00
FF1FF87F00
FC07F03F80
FC07E01F80
FC07E01F80
FC07E01F80
FC07E01F80
FC07E01F80
FC07E01F80
FC07E01F80
FC07E01F80
FC07E01F80
FC07E01F80
FC07E01F80
FC07E01F80
FC07E01F80
FC07E01F80
FC07E01F80
FC07E01F80
ENDCHAR
STARTCHAR 006E
ENCODING 110
SWIDTH 648 0
DWIDTH 27 0
BBX 21 23 3 0
BITMAP
F8FF00
FBFFC0
FFFFE0
FFFFE0
FFFFF0
FF07F0
FE03F8
FC03F8
FC01F8
FC01F8
FC01F8
FC01F8
FC01F8
FC01F8
FC01F8
FC01F8
FC01F8
FC01F8
FC01F8
FC01F8
FC01F8
FC01F8
FC01F8
ENDCHAR
STARTCHAR 006F
ENCODING 111
SWIDTH 624 0
DWIDTH 26 0
BBX 22 23 2 0
BITMAP
01FE00
07FF80
0FFFC0
1FFFF0
3FFFF0
7FCFF8
7E01F8
FE01FC
FC00FC
FC00FC
FC00FC
FC00FC
FC00FC
FC00FC
FC00FC
FE01FC
7E01F8
7FCFF8
3FFFF0
1FFFF0
0FFFC0
07FF80
00FE00
ENDCHAR
STARTCHAR 0070
ENCODING 112
SWIDTH 624 0
DWIDTH 26 0
BBX 21 32 3 -9
BITMAP
F9FC00
FFFF00
FFFFC0
FFFFE0
FFFFE0
FF0FF0
FC03F0
FC03F8
F801F8
F801F8
F801F8
F801F8
F801F8
F801F8
F801F8
FC03F8
FC03F0
FF0FF0
FFFFE0
FFFFE0
FFFFC0
FFFF00
FCFC00
FC0000
FC0000
FC0000
FC0000
FC0000
FC0000
FC0000
FC0000
FC0000
ENDCHAR
STARTCHAR 0071
ENCODING 113
SWIDTH 624 0
DWIDTH 26 0
BBX 21 32 2 -9
BITMAP
01FCF8
07FFF8
1FFFF8
3FFFF8
3FFFF8
7F87F8
7E01F8
FE01F8
FC00F8
FC00F8
FC00F8
FC00F8
FC00F8
FC00F8
FC00F8
FE01F8
7E01F8
7F87F8
3FFFF8
3FFFF8
1FFFF8
07FFF8
01F9F8
0001F8
0001F8
0001F8
0001F8
0001F8
0001F8
0001F8
0001F8
0001F8
ENDCHAR
STARTCHAR 0072
ENCODING 114
SWIDTH 408 0
DWIDTH 17 0
BBX 13 23 3 0
BITMAP
F878
F9F8
FBF8
FFF8
FFF8
FF80
FF00
FE00
FC00
FC00
FC00
FC00
FC00
FC00
FC00
FC00
FC00
FC00
FC00
FC00
FC00
FC00
FC00
ENDCHAR
STARTCHAR 0073
ENCODING 115
SWIDTH 552 0
DWIDTH 23 0
BBX 19 23 2 0
BITMAP
03F800
1FFE00
3FFF80
7FFFC0
7FFFC0
7E0FE0
FC07E0
FC0400
7F0000
7FF000
3FFE00
1FFF80
07FFC0
007FE0
000FE0
7C07E0
FC07E0
FE07E0
7FFFE0
7FFFC0
3FFF80
1FFF00
03FC00
ENDCHAR
STARTCHAR 0074
ENCODING 116
SWIDTH 456 0
DWIDTH 19 0
BBX 16 29 0 0
BITMAP
0FC0
0FC0
0FC0
0FC0
0FC0
0FC0
FFFF
FFFF
FFFF
FFFF
0FC0
0FC0
0FC0
0FC0
0FC0
0FC0
0FC0
0FC0
0FC0
0FC0
0FC0
0FC0
0FC0
0FE0
07FF
07FF
03FF
01FF
007F
ENDCHAR
STARTCHAR 0075
ENCODING 117
SWIDTH 648 0
DWIDTH 27 0
BBX 22 23 2 0
BITMAP
FC00FC
FC00FC
FC00FC
FC00FC
FC00FC
FC00FC
FC00FC
FC00FC
FC00FC
FC00FC
FC00FC
FC00FC
FC00FC
FC00FC
7E00FC
7E01FC
7F01FC
7F87FC
7FFFFC
3FFFFC
1FFF7C
0FFE7C
07FC7C
ENDCHAR
STARTCHAR 0076
ENCODING 118
SWIDTH 576 0
DWIDTH 24 0
BBX 22 23 1 0
BITMAP
FC00FC
FC00F8
7C01F8
7E01F8
7E01F0
3E03F0
3F03F0
3F03E0
1F07E0
1F87C0
0F87C0
0F8FC0
0FCF80
07CF80
07DF80
07FF00
03FF00
03FF00
03FE00
01FE00
01FE00
01FC00
00FC00
ENDCHAR
STARTCHAR 0077
ENCODING 119
SWIDTH 816 0
DWIDTH 34 0
BBX 32 23 1 0
BITMAP
FC07C03F
FC07E03F
7C07E03E
7C07E07E
7E0FF07E
7E0FF07C
3E0FF07C
3F1FF8FC
3F1FF8FC
1F1EF8F8
1FBE7DF8
1FBE7DF8
0FBC7DF0
0FBC3DF0
0FFC3FF0
0FF83FE0
07F81FE0
07F81FE0
07F81FE0
03F00FC0
03F00FC0
03F00FC0
01E00780
ENDCHAR
STARTCHAR 0078
ENCODING 120
SWIDTH 552 0
DWIDTH 23 0
BBX 22 23 1 0
BITMAP
FE01F8
7E03F8
7F03F0
3F87E0
1F8FE0
1FCFC0
0FFF80
07FF80
07FF00
03FE00
01FE00
01FC00
01FE00
03FE00
07FF00
07FF80
0FDFC0
1FCFC0
1F8FE0
3F07F0
7F03F0
FE03F8
FC01FC
ENDCHAR
STARTCHAR 0079
ENCODING 121
SWIDTH 576 0
DWIDTH 24 0
BBX 23 33 1 -10
BITMAP
F8007E
FC007C
FC00FC
7E00F8
7E01F8
3E01F8
3F01F0
3F03F0
1F83E0
1F87E0
0F87E0
0FC7C0
0FCFC0
07EF80
07EF80
03FF80
03FF00
01FF00
01FF00
01FE00
00FE00
00FC00
00FC00
00FC00
00F800
01F800
01F000
01F000
03F000
03E000
03E000
07C000
07C000
ENDCHAR
STARTCHAR 007A
ENCODING 122
SWIDTH 528 0
DWIDTH 22 0
BBX 20 23 1 0
BITMAP
7FFFF0
7FFFE0
7FFFC0
7FFFC0
7FFF80
003F80
003F00
007E00
007E00
00FC00
01F800
01F800
03F000
07F000
07E000
0FC000
0FC000
1F8000
3FFFE0
3FFFE0
7FFFE0
FFFFE0
FFFFE0
ENDCHAR
STARTCHAR 007B
ENCODING 123
SWIDTH 456 0
DWIDTH 19 0
BBX 11 46 6 -9
BITMAP
07E0
0FE0
1FE0
1FE0
3FE0
3F00
3F00
3F00
3F00
3F00
3F00
3F00
3F00
3F00
3F00
3F00
3F00
3F00
3F00
3F00
7E00
FE00
FC00
FC00
FE00
7E00
3F00
3F00
3F00
3F00
3F00
3F00
3F00
3F00
3F00
3F00
3F00
3F00
3F00
3F00
3F00
3FE0
1FE0
1FE0
0FE0
03E0
ENDCHAR
STARTCHAR 007C
ENCODING 124
SWIDTH 312 0
DWIDTH 13 0
BBX 5 30 4 0
BITMAP
F8
F8
F8
F8
F8
F8
F8
F8
F8
F8
F8
F8
F8
F8
F8
F8
F8
F8
F8
F8
F8
F8
F8
F8
F8
F8
F8
F8
F8
F8
ENDCHAR
STARTCHAR 007D
ENCODING 125
SWIDTH 456 0
DWIDTH 19 0
BBX 11 46 2 -9
BITMAP
FC00
FE00
FF00
FF00
FF80
1F80
1F80
1F80
1F80
1F80
1F80
1F80
1F80
1F80
1F80
1F80
1F80
1F80
1F80
0FC0
0FC0
0FE0
07E0
07E0
0FE0
0FC0
0F80
1F80
1F80
1F80
1F80
1F80
1F80
1F80
1F80
1F80
1F80
1F80
1F80
1F80
1F80
FF80
FF00
FF00
FE00
F800
ENDCHAR
STARTCHAR 007E
ENCODING 126
SWIDTH 744 0
DWIDTH 31 0
BBX 22 10 4 8
BITMAP
0F8000
3FC07C
7FF07C
7FF87C
7FFFFC
7FFFFC
FC7FFC
7C1FF8
7C0FF0
0003E0
ENDCHAR
STARTCHAR 00A0
ENCODING 160
SWIDTH 192 0
DWIDTH 8 0
BBX 0 0 0 0
BITMAP
ENDCHAR
STARTCHAR 00A1
ENCODING 161
SWIDTH 384 0
DWIDTH 16 0
BBX 6 30 5 -7
BITMAP
FC
FC
FC
FC
FC
00
00
00
FC
FC
FC
FC
FC
FC
FC
FC
FC
FC
FC
FC
FC
FC
FC
FC
FC
FC
FC
FC
FC
FC
ENDCHAR
STARTCHAR 00A2
ENCODING 162
SWIDTH 576 0
DWIDTH 24 0
BBX 21 31 2 -1
BITMAP
007800
007800
007800
007800
01FE00
07FF80
1FFFC0
3FFFE0
3FFFF0
7F87F8
7E03F8
FE01F0
FC0100
FC0000
FC0000
FC0000
FC0000
FC0000
FC0000
FC01C0
FE03F8
7F07F8
7FFFF0
3FFFE0
1FFFE0
0FFFC0
03FF00
007800
007800
007800
007800
ENDCHAR
STARTCHAR 00A3
ENCODING 163
SWIDTH 576 0
DWIDTH 24 0
BBX 20 30 2 0
BITMAP
007C00
03FF00
07FF80
0FFFC0
0FFFE0
1FEFE0
1F83F0
1F83F0
1F8180
1F8000
1F8000
1F8000
1F8000
FFFE00
FFFE00
FFFE00
FFFE00
FFFE00
1F8000
1F8000
1F8000
1F8000
1F8000
3F8000
7F8000
FFFFC0
FFFFC0
FFFFC0
FFFFC0
FFFFC0
ENDCHAR
STARTCHAR 00A4
ENCODING 164
SWIDTH 672 0
DWIDTH 28 0
BBX 26 26 1 2
BITMAP
00000200
18000700
3C3F0F80
7EFFFFC0
7FFFFF80
3FFFFF00
1FFFFE00
0FC0FE00
1F807E00
1F003F00
1F001F00
3E001F00
3E001F00
3E001F00
3E001F00
1F001F00
1F003F00
1F807E00
0FC0FE00
1FFFFE00
3FFFFF00
7FFFFF80
FFFFFFC0
7E3F0F80
3C000700
10000200
ENDCHAR
STARTCHAR 00A5
ENCODING 165
SWIDTH 624 0
DWIDTH 26 0
BBX 26 30 0 0
BITMAP
FE001FC0
7F001F80
7F003F80
3F803F00
1F807F00
1FC0FE00
0FC0FE00
0FE1FC00
07F1F800
07F3F800
03FBF000
01FFF000
01FFE000
00FFC000
00FFC000
0FFFFC00
0FFFFC00
0FFFFC00
0FFFFC00
003F0000
003F0000
003F0000
0FFFFC00
0FFFFC00
0FFFFC00
0FFFFC00
003F0000
003F0000
003F0000
003F0000
ENDCHAR
STARTCHAR 00A6
ENCODING 166
SWIDTH 312 0
DWIDTH 13 0
BBX 5 39 4 -9
BITMAP
F8
F8
F8
F8
F8
F8
F8
F8
F8
F8
F8
F8
F8
F8
F8
F8
F8
F8
00
00
00
00
F8
F8
F8
F8
F8
F8
F8
F8
F8
F8
F8
F8
F8
F8
F8
F8
F8
ENDCHAR
STARTCHAR 00A7
ENCODING 167
SWIDTH 552 0
DWIDTH 23 0
BBX 19 34 2 -6
BITMAP
03E000
0FFC00
3FFE00
7FFF00
7FFF80
7E1F80
FC1FC0
FC0C00
FE0000
7FC000
7FFC00
3FFF00
1FFFC0
3FFFC0
7E3FE0
FC0FE0
FC07E0
FC07E0
FE07E0
FFEFC0
7FFFC0
3FFF00
0FFF80
03FFC0
003FC0
000FE0
FC07E0
FE07E0
7F0FC0
7FFFC0
3FFF80
1FFF80
0FFE00
01F800
ENDCHAR
STARTCHAR 00A8
ENCODING 168
SWIDTH 576 0
DWIDTH 24 0
BBX 14 5 5 33
BITMAP
F87C
F87C
F87C
F87C
F87C
ENDCHAR
STARTCHAR 00A9
ENCODING 169
SWIDTH 912 0
DWIDTH 38 0
BBX 36 36 1 -3
BITMAP
0003FC0000
001FFF8000
007FFFE000
01FFFFF800
03FFFFFC00
07FF0FFE00
0FF801FF00
0FE0007F00
1FC0003F80
3F81F81FC0
3F07FE0FC0
7E0FFF07E0
7E0FFF87E0
7C1F8FC3E0
7C1E07C3E0
FC3E0203F0
FC3E0003F0
FC3E0001F0
FC3E0003F0
FC3E0003F0
FC3E0003F0
7C1E07C3F0
7C1F0FC3E0
7E0FFF87E0
7E0FFF07E0
3F07FE0FC0
3F81FC1FC0
1FC0003F80
0FE0007F80
0FF801FF00
07FF0FFE00
03FFFFFC00
01FFFFF800
007FFFE000
001FFF8000
0003FC0000
ENDCHAR
STARTCHAR 00AA
ENCODING 170
SWIDTH 312 0
DWIDTH 13 0
BBX 10 12 2 11
BITMAP
3F00
7F80
FF80
61C0
07C0
7FC0
FFC0
E1C0
C3C0
E7C0
FFC0
7DC0
ENDCHAR
STARTCHAR 00AB
ENCODING 171
SWIDTH 600 0
DWIDTH 25 0
BBX 18 18 4 3
BITMAP
030180
0783C0
0F87C0
1F0F80
1E0F00
3E1F00
7C3E00
F87C00
F0F800
F87C00
7C3E00
3C3E00
3E1F00
1F0F80
0F87C0
07C3C0
0783C0
020100
ENDCHAR
STARTCHAR 00AC
ENCODING 172
SWIDTH 600 0
DWIDTH 25 0
BBX 21 9 2 8
BITMAP
FFFFF8
FFFFF8
FFFFF8
FFFFF8
0000F8
0000F8
0000F8
0000F8
0000F8
ENDCHAR
STARTCHAR 00AD
ENCODING 173
SWIDTH 432 0
DWIDTH 18 0
BBX 13 4 2 11
BITMAP
FFF8
FFF8
FFF8
FFF8
ENDCHAR
STARTCHAR 00AE
ENCODING 174
SWIDTH 672 0
DWIDTH 28 0
BBX 22 22 3 11
BITMAP
00FC00
07FF00
0FFFC0
1FFFE0
3F03F0
7C00F0
79F878
F1FC78
F18638
F1863C
F1863C
F1FC3C
F1F83C
F18C3C
F18C78
7986F8
7C01F0
3F03F0
1FFFE0
0FFF80
03FF00
007800
ENDCHAR
STARTCHAR 00AF
ENCODING 175
SWIDTH 504 0
DWIDTH 21 0
BBX 11 4 5 35
BITMAP
FFE0
FFE0
FFE0
FFE0
ENDCHAR
STARTCHAR 00B0
ENCODING 176
SWIDTH 456 0
DWIDTH 19 0
BBX 15 15 1 15
BITMAP
07C0
1FF0
3FF8
7FFC
7FFE
7C3E
F83E
F83E
F83E
7C7E
7FFE
7FFC
3FF8
1FF0
03C0
ENDCHAR
STARTCHAR 00B1
ENCODING 177
SWIDTH 600 0
DWIDTH 25 0
BBX 21 20 2 3
BITMAP
00F800
00F800
00F800
00F800
00F800
FFFFF8
FFFFF8
FFFFF8
FFFFF8
00F800
00F800
00F800
00F800
00F800
000000
000000
FFFFF8
FFFFF8
FFFFF8
FFFFF8
ENDCHAR
STARTCHAR 00B2
ENCODING 178
SWIDTH 408 0
DWIDTH 17 0
BBX 13 19 2 11
BITMAP
0F80
3FE0
7FF0
7CF8
F078
F078
0038
0078
00F8
01F0
03E0
07C0
0F80
1F00
3E00
7C00
FFF8
FFF8
FFF8
ENDCHAR
STARTCHAR 00B3
ENCODING 179
SWIDTH 408 0
DWIDTH 17 0
BBX 13 19 2 11
BITMAP
FFF0
FFF0
FFF0
00F0
01E0
07C0
0F80
1FC0
1FE0
0FF0
00F0
0070
0078
0070
F0F0
F9F0
7FE0
3FC0
1F80
ENDCHAR
STARTCHAR 00B4
ENCODING 180
SWIDTH 552 0
DWIDTH 23 0
BBX 7 8 9 33
BITMAP
1E
1E
3C
3C
78
78
F8
F0
ENDCHAR
STARTCHAR 00B5
ENCODING 181
SWIDTH 648 0
DWIDTH 27 0
BBX 21 33 3 -10
BITMAP
FC01F8
FC01F8
FC01F8
FC01F8
FC01F8
FC01F8
FC01F8
FC01F8
FC01F8
FC01F8
FC01F8
FC01F8
FC01F8
FC01F8
FC01F8
FC01F8
FE03F8
FF07F8
FFFFF8
FFFFF8
FFFFF8
FFFEF8
FFF8F8
F80000
F80000
F80000
F80000
F80000
F80000
F80000
F80000
F80000
F80000
ENDCHAR
STARTCHAR 00B6
ENCODING 182
SWIDTH 744 0
DWIDTH 31 0
BBX 27 36 2 -6
BITMAP
03FFC3E0
0FFFC3E0
3FFFC3E0
7FFFC3E0
7FFFC3E0
FFFFC3E0
FFFFC3E0
FFFFC3E0
FFFFC3E0
FFFFC3E0
FFFFC3E0
FFFFC3E0
FFFFC3E0
FFFFC3E0
FFFFC3E0
7FFFC3E0
3FFFC3E0
1FFFC3E0
0FFFC3E0
01FFC3E0
000FC3E0
000FC3E0
000FC3E0
000FC3E0
000FC3E0
000FC3E0
000FC3E0
000FC3E0
000FC3E0
000FC3E0
000FC3E0
000FC3E0
000FC3E0
000FC3E0
000FC3E0
000FC3E0
ENDCHAR
STARTCHAR 00B7
ENCODING 183
SWIDTH 288 0
DWIDTH 12 0
BBX 7 7 2 10
BITMAP
18
7C
7E
FE
7E
7E
3C
ENDCHAR
STARTCHAR 00B8
ENCODING 184
SWIDTH 408 0
DWIDTH 17 0
BBX 7 11 5 -10
BITMAP
3C
38
38
7C
7E
1E
0E
7E
7E
FC
78
ENDCHAR
STARTCHAR 00B9
ENCODING 185
SWIDTH 360 0
DWIDTH 15 0
BBX 8 19 2 11
BITMAP
1F
7F
FF
FF
EF
8F
0F
0F
0F
0F
0F
0F
0F
0F
0F
0F
0F
0F
0F
ENDCHAR
STARTCHAR 00BA
ENCODING 186
SWIDTH 360 0
DWIDTH 15 0
BBX 11 12 2 11
BITMAP
1F00
7F80
7FC0
E1E0
E0E0
E0E0
E0E0
E0E0
E1E0
7FC0
7F80
1F00
ENDCHAR
STARTCHAR 00BB
ENCODING 187
SWIDTH 600 0
DWIDTH 25 0
BBX 19 19 3 2
BITMAP
201000
603000
F07800
F87C00
7C3E00
3C1E00
3E1F00
1F0F80
0F87C0
07C3E0
0F87C0
0F0780
1F0F80
3E1F00
7C3E00
F87C00
F07800
703800
201000
ENDCHAR
STARTCHAR 00BC
ENCODING 188
SWIDTH 1056 0
DWIDTH 44 0
BBX 37 30 2 0
BITMAP
1F00003000
7F00003800
FF00007C00
FF0000F800
EF0001F000
8F0001F000
0F0003E000
0F0007C000
0F00078000
0F000F8000
0F001F0000
0F003E07C0
0F003E0780
0F007C0F80
0F00F80F00
0F01F00F00
0F01F01E00
0F03E01E00
0F07C03C00
0007803CE0
000F8078E0
001F0078E0
003E00F0E0
003E00F0E0
007C00FFF8
00F800FFF8
01F000FFF8
01F00000E0
00E00000E0
00400000E0
ENDCHAR
STARTCHAR 00BD
ENCODING 189
SWIDTH 1032 0
DWIDTH 43 0
BBX 39 30 2 0
BITMAP
1F00003000
3F00003800
FF00007C00
FF0000F800
EF0001F000
CF0001F000
0F0003E000
0F0007C000
0F00078000
0F000F8000
0F001F0000
0F003E03E0
0F003E0FF8
0F007C1FFC
0F00F81F3E
0F01F03C1E
0F01F03C1E
0F03E0000E
0F07C0001E
000780003E
000F80007C
001F0000FC
003E0001F0
003E0003E0
007C0007C0
00F8000F80
01F0001F00
01F0003FFE
00E0003FFE
0040003FFE
ENDCHAR
STARTCHAR 00BE
ENCODING 190
SWIDTH 1056 0
DWIDTH 44 0
BBX 39 30 2 0
BITMAP
FFF0000400
FFF0000E00
FFF0001F00
00F0001E00
01E0003E00
07C0007C00
0F8000F800
1FC000F800
1FE001F000
0FF003E000
00F003C000
007007C1E0
00780F81E0
00701F03C0
F0F01E03C0
F9F03E07C0
7FE07C0780
3FC0F80F80
1F80F80F00
0001F00F38
0003E01E38
0003C01E38
0007C03C38
000F803C38
001F003FFE
001F003FFE
003E003FFE
007C000038
0038000038
0008000038
ENDCHAR
STARTCHAR 00BF
ENCODING 191
SWIDTH 552 0
DWIDTH 23 0
BBX 19 31 2 -8
BITMAP
01F800
01F800
01F800
01F800
01F800
01F800
000000
000000
01F800
01F800
01F800
03F800
03F000
07F000
0FE000
1FE000
3F8000
7F0000
7E0000
7E0000
FC0000
FC0000
FC07E0
FC07E0
FE07E0
7F9FE0
7FFFC0
3FFF80
1FFF80
0FFE00
03F800
ENDCHAR
STARTCHAR 00C0
ENCODING 192
SWIDTH 672 0
DWIDTH 28 0
BBX 26 41 1 0
BITMAP
01F00000
00F00000
00F00000
00780000
00780000
003C0000
003C0000
003E0000
00000000
00000000
00000000
007FC000
007FC000
00FFC000
00FFE000
00FFE000
01FFE000
01FBE000
01FBF000
03F3F000
03F1F000
03F1F800
07E1F800
07E1F800
07E0FC00
07E0FC00
0FC0FC00
0FC07E00
0FC07E00
1F807E00
1FFFFE00
1FFFFF00
3FFFFF00
3FFFFF00
3FFFFF80
3E001F80
7E001F80
7E000FC0
7C000FC0
FC000FC0
FC0007C0
ENDCHAR
STARTCHAR 00C1
ENCODING 193
SWIDTH 672 0
DWIDTH 28 0
BBX 26 41 1 0
BITMAP
0001E000
0003E000
0003C000
0003C000
00078000
00078000
000F8000
000F0000
00000000
00000000
00000000
007FC000
007FC000
00FFC000
00FFE000
00FFE000
01FFE000
01FFE000
01FBF000
03F3F000
03F3F000
03F1F800
07E1F800
07E1F800
07E0FC00
07C0FC00
0FC0FC00
0FC07E00
0FC07E00
1F807E00
1FFFFE00
1FFFFF00
3FFFFF00
3FFFFF00
3FFFFF80
3E001F80
7E001F80
7E000FC0
7C000FC0
FC000FC0
FC0007C0
ENDCHAR
STARTCHAR 00C2
ENCODING 194
SWIDTH 672 0
DWIDTH 28 0
BBX 26 40 1 0
BITMAP
003F0000
003F8000
007FC000
00FFE000
01F3E000
03E1F000
07C0F800
00000000
00000000
00000000
007FC000
007FC000
00FFC000
00FFE000
00FFE000
01FFE000
01FFE000
01FBF000
03F3F000
03F3F000
03F1F800
07E1F800
07E1F800
07E0FC00
07C0FC00
0FC0FC00
0FC07E00
0FC07E00
1F807E00
1FFFFE00
1FFFFF00
3FFFFF00
3FFFFF00
3FFFFF80
3E001F80
7E001F80
7E000FC0
7C000FC0
FC000FC0
FC0007C0
ENDCHAR
STARTCHAR 00C3
ENCODING 195
SWIDTH 672 0
DWIDTH 28 0
BBX 26 41 1 0
BITMAP
01F07800
03F87800
03FE7800
03FFF800
038FF800
0387F000
0001E000
00000000
00000000
00000000
00000000
007FC000
007FC000
00FFC000
00FFE000
00FFE000
01FFE000
01FFE000
01FBF000
03F3F000
03F3F000
03F1F800
07E1F800
07E1F800
07E0FC00
07C0FC00
0FC0FC00
0FC07E00
0FC07E00
1F807E00
1FFFFE00
1FFFFF00
3FFFFF00
3FFFFF00
3FFFFF80
3E001F80
7E001F80
7E000FC0
7C000FC0
FC000FC0
FC0007C0
ENDCHAR
STARTCHAR 00C4
ENCODING 196
SWIDTH 672 0
DWIDTH 28 0
BBX 26 38 1 0
BITMAP
03E1F000
03E1F000
03E1F000
03E1F000
03E1F000
00000000
00000000
00000000
007FC000
007FC000
00FFC000
00FFE000
00FFE000
01FFE000
01FFE000
01FBF000
03F3F000
03F3F000
03F1F800
07E1F800
07E1F800
07E0FC00
07C0FC00
0FC0FC00
0FC07E00
0FC07E00
1F807E00
1FFFFE00
1FFFFF00
3FFFFF00
3FFFFF00
3FFFFF80
3E001F80
7E001F80
7E000FC0
7C000FC0
FC000FC0
FC0007C0
ENDCHAR
STARTCHAR 00C5
ENCODING 197
SWIDTH 672 0
DWIDTH 28 0
BBX 26 43 1 0
BITMAP
003F0000
007F8000
00FFC000
00F1E000
00E1E000
00E0E000
00E1E000
00F3C000
007FC000
007F8000
001F0000
00000000
00000000
007FC000
007FC000
00FFC000
00FFE000
00FFE000
01FFE000
01FFE000
01FBF000
03F3F000
03F3F000
03F1F800
07E1F800
07E1F800
07E0FC00
07C0FC00
0FC0FC00
0FC07E00
0FC07E00
1F807E00
1FFFFE00
1FFFFF00
3FFFFF00
3FFFFF00
3FFFFF80
3E001F80
7E001F80
7E000FC0
7C000FC0
FC000FC0
FC0007C0
ENDCHAR
STARTCHAR 00C6
ENCODING 198
SWIDTH 936 0
DWIDTH 39 0
BBX 36 30 1 0
BITMAP
007FFFFFF0
007FFFFFF0
00FFFFFFF0
00FFFFFFF0
00FFFFFFF0
01F87C0000
01F87C0000
01F87C0000
03F07C0000
03F07C0000
03F07C0000
07E07C0000
07E07FFFC0
07E07FFFC0
07C07FFFC0
0FC07FFFC0
0FC07FFFC0
0FC07C0000
1F807C0000
1FFFFC0000
1FFFFC0000
3FFFFC0000
3FFFFC0000
3FFFFC0000
3E007C0000
7E007FFFF0
7E007FFFF0
7C007FFFF0
FC007FFFF0
FC007FFFF0
ENDCHAR
STARTCHAR 00C7
ENCODING 199
SWIDTH 744 0
DWIDTH 31 0
BBX 28 40 1 -10
BITMAP
001FE000
00FFFC00
03FFFE00
07FFFF80
0FFFFFC0
1FF8FFC0
3FC01FE0
3F8007F0
7F0003F0
7E0003F0
7E000100
7E000000
FC000000
FC000000
FC000000
FC000000
FC000000
FC000000
FE000000
7E000000
7E0003E0
7F0003F0
3F8007F0
3FC00FE0
1FF03FE0
0FFFFFC0
07FFFF80
03FFFF00
00FFFC00
003FE000
00070000
00078000
000FC000
0007E000
0001E000
0001E000
000FE000
000FC000
000F8000
000F0000
ENDCHAR
STARTCHAR 00C8
ENCODING 200
SWIDTH 600 0
DWIDTH 25 0
BBX 20 41 3 0
BITMAP
078000
078000
03C000
03C000
03E000
01E000
01F000
00F000
000000
000000
000000
FFFFF0
FFFFF0
FFFFF0
FFFFF0
FFFFF0
FC0000
FC0000
FC0000
FC0000
FC0000
FC0000
FC0000
FFFF80
FFFF80
FFFF80
FFFF80
FFFF80
FC0000
FC0000
FC0000
FC0000
FC0000
FC0000
FC0000
FC0000
FFFFF0
FFFFF0
FFFFF0
FFFFF0
FFFFF0
ENDCHAR
STARTCHAR 00C9
ENCODING 201
SWIDTH 600 0
DWIDTH 25 0
BBX 20 41 3 0
BITMAP
001F00
001E00
003E00
003C00
003C00
007800
007800
00F800
000000
000000
000000
FFFFF0
FFFFF0
FFFFF0
FFFFF0
FFFFF0
FC0000
FC0000
FC0000
FC0000
FC0000
FC0000
FC0000
FFFF80
FFFF80
FFFF80
FFFF80
FFFF80
FC0000
FC0000
FC0000
FC0000
FC0000
FC0000
FC0000
FC0000
FFFFF0
FFFFF0
FFFFF0
FFFFF0
FFFFF0
ENDCHAR
STARTCHAR 00CA
ENCODING 202
SWIDTH 600 0
DWIDTH 25 0
BBX 20 40 3 0
BITMAP
01F000
03F800
07FC00
0FBE00
1F1F00
3E1F80
7E0F80
000000
000000
000000
FFFFF0
FFFFF0
FFFFF0
FFFFF0
FFFFF0
FC0000
FC0000
FC0000
FC0000
FC0000
FC0000
FC0000
FFFF80
FFFF80
FFFF80
FFFF80
FFFF80
FC0000
FC0000
FC0000
FC0000
FC0000
FC0000
FC0000
FC0000
FFFFF0
FFFFF0
FFFFF0
FFFFF0
FFFFF0
ENDCHAR
STARTCHAR 00CB
ENCODING 203
SWIDTH 600 0
DWIDTH 25 0
BBX 20 38 3 0
BITMAP
1F0F80
1F0F80
1F0F80
1F0F80
1F0F80
000000
000000
000000
FFFFF0
FFFFF0
FFFFF0
FFFFF0
FFFFF0
FC0000
FC0000
FC0000
FC0000
FC0000
FC0000
FC0000
FFFF80
FFFF80
FFFF80
FFFF80
FFFF80
FC0000
FC0000
FC0000
FC0000
FC0000
FC0000
FC0000
FC0000
FFFFF0
FFFFF0
FFFFF0
FFFFF0
FFFFF0
ENDCHAR
STARTCHAR 00CC
ENCODING 204
SWIDTH 288 0
DWIDTH 12 0
BBX 8 41 1 0
BITMAP
F0
F0
78
78
7C
3C
3E
1E
00
00
00
3F
3F
3F
3F
3F
3F
3F
3F
3F
3F
3F
3F
3F
3F
3F
3F
3F
3F
3F
3F
3F
3F
3F
3F
3F
3F
3F
3F
3F
3F
ENDCHAR
STARTCHAR 00CD
ENCODING 205
SWIDTH 288 0
DWIDTH 12 0
BBX 9 41 3 0
BITMAP
0F80
0F00
1F00
1E00
1E00
3C00
3C00
7C00
0000
0000
0000
FC00
FC00
FC00
FC00
FC00
FC00
FC00
FC00
FC00
FC00
FC00
FC00
FC00
FC00
FC00
FC00
FC00
FC00
FC00
FC00
FC00
FC00
FC00
FC00
FC00
FC00
FC00
FC00
FC00
FC00
ENDCHAR
STARTCHAR 00CE
ENCODING 206
SWIDTH 288 0
DWIDTH 12 0
BBX 16 40 -2 0
BITMAP
07E0
0FF0
0FF8
1FF8
3E7C
7C3E
F81F
0000
0000
0000
07E0
07E0
07E0
07E0
07E0
07E0
07E0
07E0
07E0
07E0
07E0
07E0
07E0
07E0
07E0
07E0
07E0
07E0
07E0
07E0
07E0
07E0
07E0
07E0
07E0
07E0
07E0
07E0
07E0
07E0
ENDCHAR
STARTCHAR 00CF
ENCODING 207
SWIDTH 288 0
DWIDTH 12 0
BBX 14 38 -1 0
BITMAP
F87C
F87C
F87C
F87C
F87C
0000
0000
0000
0FC0
0FC0
0FC0
0FC0
0FC0
0FC0
0FC0
0FC0
0FC0
0FC0
0FC0
0FC0
0FC0
0FC0
0FC0
0FC0
0FC0
0FC0
0FC0
0FC0
0FC0
0FC0
0FC0
0FC0
0FC0
0FC0
0FC0
0FC0
0FC0
0FC0
ENDCHAR
STARTCHAR 00D0
ENCODING 208
SWIDTH 720 0
DWIDTH 30 0
BBX 28 30 0 0
BITMAP
1FFFC000
1FFFF800
1FFFFC00
1FFFFE00
1FFFFF00
1F81FF80
1F803FC0
1F801FC0
1F800FE0
1F8007E0
1F8007E0
1F8007E0
1F8007F0
FFFE03F0
FFFE03F0
FFFE03F0
FFFE03F0
1F8007E0
1F8007E0
1F8007E0
1F8007E0
1F800FE0
1F801FC0
1F803FC0
1F81FF80
1FFFFF00
1FFFFE00
1FFFFC00
1FFFF800
1FFFC000
ENDCHAR
STARTCHAR 00D1
ENCODING 209
SWIDTH 720 0
DWIDTH 30 0
BBX 24 40 3 0
BITMAP
01E0F0
03F870
07FCF0
07FFF0
079FF0
078FE0
0003C0
000000
000000
000000
FC001F
FE001F
FE001F
FF001F
FF801F
FF801F
FFC01F
FFE01F
FFE01F
FFF01F
FFF81F
FDF81F
FDFC1F
FCFC1F
FC7E1F
FC7F1F
FC3F1F
FC1F9F
FC1FDF
FC0FDF
FC0FFF
FC07FF
FC03FF
FC03FF
FC01FF
FC00FF
FC00FF
FC007F
FC003F
FC003F
ENDCHAR
STARTCHAR 00D2
ENCODING 210
SWIDTH 768 0
DWIDTH 32 0
BBX 29 41 1 0
BITMAP
00780000
00780000
003C0000
003C0000
003E0000
001E0000
001E0000
000F0000
000F0000
00000000
00000000
001FE000
00FFFC00
03FFFE00
07FFFF80
0FFFFFC0
1FF8FFC0
3FC01FE0
3F8007F0
7F0003F0
7E0003F8
7E0001F8
7E0001F8
FC0001F8
FC0001F8
FC0001F8
FC0001F8
FC0001F8
FC0001F8
7E0001F8
7E0001F8
7E0003F8
7F0003F0
3F8007F0
3FC00FE0
1FF87FE0
0FFFFFC0
07FFFF80
03FFFE00
00FFFC00
001FE000
ENDCHAR
STARTCHAR 00D3
ENCODING 211
SWIDTH 768 0
DWIDTH 32 0
BBX 29 41 1 0
BITMAP
0000F000
0000F000
0001F000
0001E000
0001E000
0003C000
0003C000
00078000
00078000
00000000
00000000
001FE000
00FFFC00
03FFFE00
07FFFF80
0FFFFFC0
1FF8FFC0
3FC01FE0
3F8007F0
7F0003F0
7E0003F8
7E0001F8
7E0001F8
FC0001F8
FC0001F8
FC0001F8
FC0001F8
FC0001F8
FC0001F8
7E0001F8
7E0001F8
7E0003F8
7F0003F0
3F8007F0
3FC00FE0
1FF87FE0
0FFFFFC0
07FFFF80
03FFFE00
00FFFC00
001FE000
ENDCHAR
STARTCHAR 00D4
ENCODING 212
SWIDTH 768 0
DWIDTH 32 0
BBX 29 39 1 0
BITMAP
000F8000
001FC000
003FE000
007DF000
00FCF800
00F87C00
01F07E00
00000000
00000000
001FE000
00FFFC00
03FFFE00
07FFFF80
0FFFFFC0
1FF8FFC0
3FC01FE0
3F8007F0
7F0003F0
7E0003F8
7E0001F8
7E0001F8
FC0001F8
FC0001F8
FC0001F8
FC0001F8
FC0001F8
FC0001F8
7E0001F8
7E0001F8
7E0003F8
7F0003F0
3F8007F0
3FC00FE0
1FF87FE0
0FFFFFC0
07FFFF80
03FFFE00
00FFFC00
001FE000
ENDCHAR
STARTCHAR 00D5
ENCODING 213
SWIDTH 768 0
DWIDTH 32 0
BBX 29 40 1 0
BITMAP
00780000
00FE1E00
00FF9E00
01FFFE00
01E7FC00
01E1FC00
00E07800
00000000
00000000
00000000
001FE000
00FFFC00
03FFFE00
07FFFF80
0FFFFFC0
1FF8FFC0
3FC01FE0
3F8007F0
7F0003F0
7E0003F8
7E0001F8
7E0001F8
FC0001F8
FC0001F8
FC0001F8
FC0001F8
FC0001F8
FC0001F8
7E0001F8
7E0001F8
7E0003F8
7F0003F0
3F8007F0
3FC00FE0
1FF87FE0
0FFFFFC0
07FFFF80
03FFFE00
00FFFC00
001FE000
ENDCHAR
STARTCHAR 00D6
ENCODING 214
SWIDTH 768 0
DWIDTH 32 0
BBX 29 38 1 0
BITMAP
00F87C00
00F87C00
00F87C00
00F87C00
00F87C00
00000000
00000000
00000000
001FE000
00FFFC00
03FFFE00
07FFFF80
0FFFFFC0
1FF8FFC0
3FC01FE0
3F8007F0
7F0003F0
7E0003F8
7E0001F8
7E0001F8
FC0001F8
FC0001F8
FC0001F8
FC0001F8
FC0001F8
FC0001F8
7E0001F8
7E0001F8
7E0003F8
7F0003F0
3F8007F0
3FC00FE0
1FF87FE0
0FFFFFC0
07FFFF80
03FFFE00
00FFFC00
001FE000
ENDCHAR
STARTCHAR 00D7
ENCODING 215
SWIDTH 504 0
DWIDTH 21 0
BBX 16 16 3 7
BITMAP
200C
701E
F83F
FC7E
7EFC
3FF8
1FF0
0FE0
0FE0
1FF0
3FF8
7EFC
FC7E
F83E
701C
2008
ENDCHAR
STARTCHAR 00D8
ENCODING 216
SWIDTH 768 0
DWIDTH 32 0
BBX 29 30 1 0
BITMAP
001FE040
00FFFCE0
03FFFFF0
07FFFFF8
0FFFFFF0
1FF8FFE0
3FC01FE0
3F801FF0
7F003FF0
7E007FF8
7E00FFF8
7E01FDF8
FC03F9F8
FC07F1F8
FC0FE1F8
FC1FC1F8
FC3F81F8
FC7F01F8
7EFE01F8
7FFC01F8
7FF803F0
7FF003F0
3FE007F0
3FE00FE0
1FF87FC0
3FFFFFC0
7FFFFF80
3FFFFE00
1CFFFC00
083FE000
ENDCHAR
STARTCHAR 00D9
ENCODING 217
SWIDTH 720 0
DWIDTH 30 0
BBX 24 41 3 0
BITMAP
01E000
00F000
00F000
00F800
007800
007C00
003C00
003C00
000000
000000
000000
FC001F
FC001F
FC001F
FC001F
FC001F
FC001F
FC001F
FC001F
FC001F
FC001F
FC001F
FC001F
FC001F
FC001F
FC001F
FC001F
FC001F
FC001F
FC001F
FC003F
FC003F
FC003F
7E007F
7F00FE
7FE7FE
3FFFFC
1FFFF8
0FFFF0
03FFE0
00FF00
ENDCHAR
STARTCHAR 00DA
ENCODING 218
SWIDTH 720 0
DWIDTH 30 0
BBX 24 41 3 0
BITMAP
000780
000780
000F00
000F00
001F00
001E00
001E00
003C00
000000
000000
000000
FC001F
FC001F
FC001F
FC001F
FC001F
FC001F
FC001F
FC001F
FC001F
FC001F
FC001F
FC001F
FC001F
FC001F
FC001F
FC001F
FC001F
FC001F
FC001F
FC003F
FC003F
FC003F
7E007F
7F00FE
7FE7FE
3FFFFC
1FFFF8
0FFFF0
03FFE0
00FF00
ENDCHAR
STARTCHAR 00DB
ENCODING 219
SWIDTH 720 0
DWIDTH 30 0
BBX 24 40 3 0
BITMAP
007E00
00FF00
00FF80
01FF80
03E7C0
07C3E0
0F81F0
000000
000000
000000
FC001F
FC001F
FC001F
FC001F
FC001F
FC001F
FC001F
FC001F
FC001F
FC001F
FC001F
FC001F
FC001F
FC001F
FC001F
FC001F
FC001F
FC001F
FC001F
FC003F
FC003F
FC003F
7E007F
7F00FE
7FE7FE
3FFFFC
1FFFF8
0FFFF0
03FFE0
00FF00
ENDCHAR
STARTCHAR 00DC
ENCODING 220
SWIDTH 720 0
DWIDTH 30 0
BBX 24 38 3 0
BITMAP
07C3E0
07C3E0
07C3E0
07C3E0
07C3E0
000000
000000
000000
FC001F
FC001F
FC001F
FC001F
FC001F
FC001F
FC001F
FC001F
FC001F
FC001F
FC001F
FC001F
FC001F
FC001F
FC001F
FC001F
FC001F
FC001F
FC001F
FC003F
FC003F
FC003F
7E007F
7F00FE
7FE7FE
3FFFFC
1FFFF8
0FFFF0
03FFE0
00FF00
ENDCHAR
STARTCHAR 00DD
ENCODING 221
SWIDTH 624 0
DWIDTH 26 0
BBX 26 41 0 0
BITMAP
0003C000
0003C000
0007C000
00078000
000F8000
000F0000
000F0000
001E0000
00000000
00000000
00000000
FE001FC0
7F001F80
7F003F80
3F803F00
1F807F00
1FC0FE00
0FC0FE00
0FE1FC00
07F1F800
07F3F800
03FBF000
01FFF000
01FFE000
00FFC000
00FFC000
007F8000
007F8000
003F0000
003F0000
003F0000
003F0000
003F0000
003F0000
003F0000
003F0000
003F0000
003F0000
003F0000
003F0000
003F0000
ENDCHAR
STARTCHAR 00DE
ENCODING 222
SWIDTH 648 0
DWIDTH 27 0
BBX 22 30 3 0
BITMAP
FC0000
FC0000
FC0000
FC0000
FC0000
FFFF00
FFFFC0
FFFFE0
FFFFF0
FFFFF8
FC07F8
FC01FC
FC00FC
FC00FC
FC007C
FC007C
FC007C
FC00FC
FC01FC
FC07F8
FFFFF8
FFFFF0
FFFFE0
FFFFC0
FFFF00
FC0000
FC0000
FC0000
FC0000
FC0000
ENDCHAR
STARTCHAR 00DF
ENCODING 223
SWIDTH 648 0
DWIDTH 27 0
BBX 21 30 3 0
BITMAP
03F800
0FFE00
3FFF00
7FFF80
7FFFC0
FF1FC0
FE0FE0
FC07E0
FC07E0
FC07E0
FC07E0
FC0FC0
FC7FC0
FC7F80
FC7FC0
FC7FE0
FC7FF0
FC03F8
FC01F8
FC00F8
FC00F8
FC00F8
FC01F8
FC03F8
FCFFF8
FCFFF8
FCFFF0
FCFFE0
FCFFC0
FCFF00
ENDCHAR
STARTCHAR 00E0
ENCODING 224
SWIDTH 576 0
DWIDTH 24 0
BBX 20 34 2 0
BITMAP
078000
07C000
03C000
03E000
01E000
01E000
00F000
00F000
000000
000000
000000
03FC00
0FFF00
1FFFC0
3FFFE0
7FFFE0
7F0FE0
3C03F0
0003F0
00FFF0
0FFFF0
3FFFF0
7FFFF0
FFF3F0
FF03F0
FC03F0
F803F0
F807F0
FC0FF0
FF7FF0
FFFFF0
7FFDF0
3FF9F0
0FE000
ENDCHAR
STARTCHAR 00E1
ENCODING 225
SWIDTH 576 0
DWIDTH 24 0
BBX 20 34 2 0
BITMAP
000F00
001E00
001E00
003E00
003C00
003C00
007800
007800
000000
000000
000000
03FC00
0FFF00
1FFFC0
3FFFE0
7FFFE0
7F0FE0
3C03F0
0003F0
00FFF0
0FFFF0
3FFFF0
7FFFF0
FFF3F0
FF03F0
FC03F0
F803F0
F807F0
FC0FF0
FF7FF0
FFFFF0
7FFDF0
3FF9F0
0FE0F0
ENDCHAR
STARTCHAR 00E2
ENCODING 226
SWIDTH 576 0
DWIDTH 24 0
BBX 20 32 2 0
BITMAP
00F800
01FC00
03FE00
07DF00
0F8F80
1F0FC0
3F07C0
000000
000000
03FC00
0FFF00
1FFFC0
3FFFE0
7FFFE0
7F0FE0
3C03F0
0003F0
00FFF0
0FFFF0
3FFFF0
7FFFF0
FFF3F0
FF03F0
FC03F0
F803F0
F807F0
FC0FF0
FF7FF0
FFFFF0
7FFDF0
3FF9F0
0FE000
ENDCHAR
STARTCHAR 00E3
ENCODING 227
SWIDTH 576 0
DWIDTH 24 0
BBX 20 33 2 0
BITMAP
078000
0FE1C0
1FF1E0
1FFFC0
1E7FC0
1E1FC0
1E0F80
000000
000000
000000
03FC00
0FFF00
1FFFC0
3FFFE0
7FFFE0
7F0FE0
3C03F0
0003F0
00FFF0
0FFFF0
3FFFF0
7FFFF0
FFF3F0
FF03F0
FC03F0
F803F0
F807F0
F80FF0
FC1FF0
FFFFF0
7FFDF0
3FF9F0
0FE000
ENDCHAR
STARTCHAR 00E4
ENCODING 228
SWIDTH 576 0
DWIDTH 24 0
BBX 20 31 2 0
BITMAP
0F8F80
0F8F80
0F8F80
0F8F80
0F8F80
000000
000000
000000
03FC00
0FFF00
1FFFC0
3FFFE0
7FFFE0
7F0FE0
3C03F0
0003F0
00FFF0
0FFFF0
3FFFF0
7FFFF0
FFF3F0
FF03F0
FC03F0
F803F0
F807F0
FC0FF0
FF7FF0
FFFFF0
7FFDF0
3FF9F0
0FE000
ENDCHAR
STARTCHAR 00E5
ENCODING 229
SWIDTH 576 0
DWIDTH 24 0
BBX 20 36 2 0
BITMAP
00F800
01FC00
03FE00
07DF00
070F00
070700
070700
078F00
03FE00
03FE00
01F800
000000
000000
03FC00
0FFF00
1FFFC0
3FFFE0
7FFFE0
7F0FE0
3C03F0
0003F0
00FFF0
0FFFF0
3FFFF0
7FFFF0
FFF3F0
FF03F0
FC03F0
F803F0
F807F0
FC0FF0
FF7FF0
FFFFF0
7FFDF0
3FF9F0
0FE0F0
ENDCHAR
STARTCHAR 00E6
ENCODING 230
SWIDTH 936 0
DWIDTH 39 0
BBX 35 23 2 0
BITMAP
01FC03F000
07FF0FFE00
1FFFBFFF00
3FFFFFFF80
7FFFFFFFC0
7F0FFE0FC0
7C03F807C0
0403F807E0
0003F003E0
00FFFFFFE0
0FFFFFFFE0
3FFFFFFFE0
7FFFFFFFE0
FF03F00000
FC03F80000
F803F80600
F807FC07E0
FC0FFF1FE0
FF7FFFFFC0
FFFF7FFF80
7FFE3FFF00
3FF80FFE00
0FE003F800
ENDCHAR
STARTCHAR 00E7
ENCODING 231
SWIDTH 576 0
DWIDTH 24 0
BBX 21 33 2 -10
BITMAP
01FC00
07FF80
0FFFC0
1FFFE0
3FFFF0
7F8FF0
7E03F8
FE01F8
FC0180
FC0000
FC0000
FC0000
FC0000
FC0000
FC0000
FC01E0
7E03F8
7F87F0
3FFFF0
3FFFE0
1FFFC0
07FF80
01FE00
007000
007800
00FC00
007C00
001E00
001E00
00FE00
00FC00
01F800
00F000
ENDCHAR
STARTCHAR 00E8
ENCODING 232
SWIDTH 600 0
DWIDTH 25 0
BBX 22 34 2 0
BITMAP
07C000
03C000
03E000
01E000
01E000
00F000
00F000
00F800
007800
000000
000000
01FC00
07FF80
0FFFC0
1FFFE0
3FFFF0
7F03F0
7E01F8
FC01F8
FC00F8
FFFFFC
FFFFFC
FFFFFC
FFFFFC
FC0000
FC0000
FE0180
7E01F8
7FC7F8
3FFFF0
1FFFF0
0FFFC0
07FF80
00FE00
ENDCHAR
STARTCHAR 00E9
ENCODING 233
SWIDTH 600 0
DWIDTH 25 0
BBX 22 34 2 0
BITMAP
000780
000F80
000F00
000F00
001E00
001E00
003C00
003C00
007C00
000000
000000
01FC00
07FF80
0FFFC0
1FFFE0
3FFFF0
7F03F0
7E01F8
FC01F8
FC00F8
FFFFFC
FFFFFC
FFFFFC
FFFFFC
FC0000
FC0000
FE0180
7E01F8
7FC7F8
3FFFF0
1FFFF0
0FFFC0
07FF80
00FE00
ENDCHAR
STARTCHAR 00EA
ENCODING 234
SWIDTH 600 0
DWIDTH 25 0
BBX 22 32 2 0
BITMAP
00FC00
01FE00
03FE00
03FF00
07CF80
0F87C0
1F03E0
000000
000000
01FC00
07FF80
0FFFC0
1FFFE0
3FFFF0
7F03F0
7E01F8
FC01F8
FC00F8
FFFFFC
FFFFFC
FFFFFC
FFFFFC
FC0000
FC0000
FE0180
7E01F8
7FC7F8
3FFFF0
1FFFF0
0FFFC0
07FF80
00FE00
ENDCHAR
STARTCHAR 00EB
ENCODING 235
SWIDTH 600 0
DWIDTH 25 0
BBX 22 31 2 0
BITMAP
0F87C0
0F87C0
0F87C0
0F87C0
0F87C0
000000
000000
000000
01FC00
07FF80
0FFFC0
1FFFE0
3FFFF0
7F03F0
7E01F8
FC01F8
FC00F8
FFFFFC
FFFFFC
FFFFFC
FFFFFC
FC0000
FC0000
FE0180
7E01F8
7FC7F8
3FFFF0
1FFFF0
0FFFC0
07FF80
00FE00
ENDCHAR
STARTCHAR 00EC
ENCODING 236
SWIDTH 288 0
DWIDTH 12 0
BBX 8 34 1 0
BITMAP
F0
F0
78
78
3C
3C
3E
1E
00
00
00
3F
3F
3F
3F
3F
3F
3F
3F
3F
3F
3F
3F
3F
3F
3F
3F
3F
3F
3F
3F
3F
3F
3F
ENDCHAR
STARTCHAR 00ED
ENCODING 237
SWIDTH 288 0
DWIDTH 12 0
BBX 9 34 3 0
BITMAP
0F80
0F00
1F00
1E00
1E00
3C00
3C00
7C00
0000
0000
0000
FC00
FC00
FC00
FC00
FC00
FC00
FC00
FC00
FC00
FC00
FC00
FC00
FC00
FC00
FC00
FC00
FC00
FC00
FC00
FC00
FC00
FC00
FC00
ENDCHAR
STARTCHAR 00EE
ENCODING 238
SWIDTH 288 0
DWIDTH 12 0
BBX 16 33 -2 0
BITMAP
03E0
07F0
0FF8
1F7C
3E3E
7E3F
FC1F
0000
0000
0000
07E0
07E0
07E0
07E0
07E0
07E0
07E0
07E0
07E0
07E0
07E0
07E0
07E0
07E0
07E0
07E0
07E0
07E0
07E0
07E0
07E0
07E0
07E0
ENDCHAR
STARTCHAR 00EF
ENCODING 239
SWIDTH 288 0
DWIDTH 12 0
BBX 14 31 -1 0
BITMAP
F87C
F87C
F87C
F87C
F87C
0000
0000
0000
0FC0
0FC0
0FC0
0FC0
0FC0
0FC0
0FC0
0FC0
0FC0
0FC0
0FC0
0FC0
0FC0
0FC0
0FC0
0FC0
0FC0
0FC0
0FC0
0FC0
0FC0
0FC0
0FC0
ENDCHAR
STARTCHAR 00F0
ENCODING 240
SWIDTH 600 0
DWIDTH 25 0
BBX 21 32 2 0
BITMAP
000300
01F380
01FFC0
01FF80
03FF80
003FC0
007FC0
007FE0
0031E0
0001F0
01FCF0
07FFF0
1FFFF8
3FFFF8
3FFFF8
7F07F8
FE03F8
FC01F8
FC01F8
F800F8
F800F8
F800F8
F800F8
FC01F8
FC01F8
FE03F8
7F07F0
7FFFF0
3FFFE0
1FFFC0
07FF80
01FC00
ENDCHAR
STARTCHAR 00F1
ENCODING 241
SWIDTH 648 0
DWIDTH 27 0
BBX 21 33 3 0
BITMAP
0F83C0
1FC3C0
1FF3C0
1FFFC0
1E7FC0
1C3F80
000F00
000000
000000
000000
F8FF00
FBFFC0
FFFFE0
FFFFE0
FFFFF0
FF07F0
FE03F8
FC03F8
FC01F8
FC01F8
FC01F8
FC01F8
FC01F8
FC01F8
FC01F8
FC01F8
FC01F8
FC01F8
FC01F8
FC01F8
FC01F8
FC01F8
FC01F8
ENDCHAR
STARTCHAR 00F2
ENCODING 242
SWIDTH 624 0
DWIDTH 26 0
BBX 22 34 2 0
BITMAP
07C000
03C000
03C000
01E000
01E000
01F000
00F000
00F000
007800
000000
000000
01FE00
07FF80
0FFFC0
1FFFF0
3FFFF0
7FCFF8
7E01F8
FE01FC
FC00FC
FC00FC
FC00FC
FC00FC
FC00FC
FC00FC
FC00FC
FE01FC
7E01F8
7FCFF8
3FFFF0
1FFFF0
0FFFC0
07FF80
00FE00
ENDCHAR
STARTCHAR 00F3
ENCODING 243
SWIDTH 624 0
DWIDTH 26 0
BBX 22 34 2 0
BITMAP
000F80
000F00
000F00
001E00
001E00
003E00
003C00
007C00
007800
000000
000000
01FE00
07FF80
0FFFC0
1FFFF0
3FFFF0
7FCFF8
7E01F8
FE01FC
FC00FC
FC00FC
FC00FC
FC00FC
FC00FC
FC00FC
FC00FC
FE01FC
7E01F8
7FCFF8
3FFFF0
1FFFF0
0FFFC0
07FF80
00FE00
ENDCHAR
STARTCHAR 00F4
ENCODING 244
SWIDTH 624 0
DWIDTH 26 0
BBX 22 32 2 0
BITMAP
00FC00
01FE00
03FF00
03FF00
07CF80
0F87C0
1F03E0
000000
000000
01FE00
07FF80
0FFFC0
1FFFF0
3FFFF0
7FCFF8
7E01F8
FE01FC
FC00FC
FC00FC
FC00FC
FC00FC
FC00FC
FC00FC
FC00FC
FE01FC
7E01F8
7FCFF8
3FFFF0
1FFFF0
0FFFC0
07FF80
00FE00
ENDCHAR
STARTCHAR 00F5
ENCODING 245
SWIDTH 624 0
DWIDTH 26 0
BBX 22 33 2 0
BITMAP
078000
0FE1E0
0FF9E0
1FFFE0
1E7FC0
1E1FC0
0E0780
000000
000000
000000
01FE00
07FF80
0FFFC0
1FFFF0
3FFFF0
7FCFF8
7E01F8
FE01FC
FC00FC
FC00FC
FC00FC
FC00FC
FC00FC
FC00FC
FC00FC
FE01FC
7E01F8
7FCFF8
3FFFF0
1FFFF0
0FFFC0
07FF80
00FE00
ENDCHAR
STARTCHAR 00F6
ENCODING 246
SWIDTH 624 0
DWIDTH 26 0
BBX 22 31 2 0
BITMAP
0F87C0
0F87C0
0F87C0
0F87C0
0F87C0
000000
000000
000000
01FE00
07FF80
0FFFC0
1FFFF0
3FFFF0
7FCFF8
7E01F8
FE01FC
FC00FC
FC00FC
FC00FC
FC00FC
FC00FC
FC00FC
FC00FC
FE01FC
7E01F8
7FCFF8
3FFFF0
1FFFF0
0FFFC0
07FF80
00FE00
ENDCHAR
STARTCHAR 00F7
ENCODING 247
SWIDTH 552 0
DWIDTH 23 0
BBX 18 18 2 6
BITMAP
01F000
01F000
01F000
01F000
01F000
000000
000000
FFFFC0
FFFFC0
FFFFC0
FFFFC0
000000
000000
01F000
01F000
01F000
01F000
01F000
ENDCHAR
STARTCHAR 00F8
ENCODING 248
SWIDTH 624 0
DWIDTH 26 0
BBX 24 23 1 0
BITMAP
00FF08
03FFDC
07FFFE
0FFFFF
1FFFFE
3FE3FC
3F01FC
7F07FE
7E0FFE
7E1FFE
7E3F7E
7E7E7E
7EFC7E
7FF87E
7FF07E
7FE0FE
3FC0FC
3FC7FC
7FFFF8
FFFFF8
7FFFE0
3BFFC0
10FF00
ENDCHAR
STARTCHAR 00F9
ENCODING 249
SWIDTH 648 0
DWIDTH 27 0
BBX 22 34 2 0
BITMAP
03C000
03C000
01E000
01E000
01F000
00F000
00F800
007800
000000
000000
000000
FC00FC
FC00FC
FC00FC
FC00FC
FC00FC
FC00FC
FC00FC
FC00FC
FC00FC
FC00FC
FC00FC
FC00FC
FC00FC
FC00FC
7E00FC
7E01FC
7F01FC
7F87FC
7FFFFC
3FFFFC
1FFF7C
0FFE7C
07FC7C
ENDCHAR
STARTCHAR 00FA
ENCODING 250
SWIDTH 648 0
DWIDTH 27 0
BBX 22 34 2 0
BITMAP
000F00
001F00
001E00
001E00
003C00
003C00
007800
007800
000000
000000
000000
FC00FC
FC00FC
FC00FC
FC00FC
FC00FC
FC00FC
FC00FC
FC00FC
FC00FC
FC00FC
FC00FC
FC00FC
FC00FC
FC00FC
7E00FC
7E01FC
7F01FC
7F87FC
7FFFFC
3FFFFC
1FFF7C
0FFE7C
07FC7C
ENDCHAR
STARTCHAR 00FB
ENCODING 251
SWIDTH 648 0
DWIDTH 27 0
BBX 22 33 2 0
BITMAP
00FC00
01FE00
03FE00
03FF00
07CF80
0F87C0
1F03E0
000000
000000
000000
FC00FC
FC00FC
FC00FC
FC00FC
FC00FC
FC00FC
FC00FC
FC00FC
FC00FC
FC00FC
FC00FC
FC00FC
FC00FC
FC00FC
7E00FC
7E01FC
7F01FC
7F87FC
7FFFFC
3FFFFC
1FFF7C
0FFE7C
07FC7C
ENDCHAR
STARTCHAR 00FC
ENCODING 252
SWIDTH 648 0
DWIDTH 27 0
BBX 22 31 2 0
BITMAP
0F87C0
0F87C0
0F87C0
0F87C0
0F87C0
000000
000000
000000
FC00FC
FC00FC
FC00FC
FC00FC
FC00FC
FC00FC
FC00FC
FC00FC
FC00FC
FC00FC
FC00FC
FC00FC
FC00FC
FC00FC
7E00FC
7E01FC
7F01FC
7F87FC
7FFFFC
3FFFFC
1FFF7C
0FFE7C
07FC7C
ENDCHAR
STARTCHAR 00FD
ENCODING 253
SWIDTH 576 0
DWIDTH 24 0
BBX 23 44 1 -10
BITMAP
000F00
000F00
001F00
001E00
001E00
003C00
003C00
007800
000000
000000
000000
F8007E
FC007C
FC00FC
7E00F8
7E01F8
3E01F8
3F01F0
3F03F0
1F83E0
1F87E0
0F87E0
0FC7C0
0FCFC0
07EF80
07EF80
03FF80
03FF00
01FF00
01FF00
01FE00
00FE00
00FC00
00FC00
00FC00
00F800
01F800
01F000
01F000
03F000
03E000
03E000
07C000
07C000
ENDCHAR
STARTCHAR 00FE
ENCODING 254
SWIDTH 624 0
DWIDTH 26 0
BBX 21 39 3 -9
BITMAP
FC0000
FC0000
FC0000
FC0000
FC0000
FC0000
FC0000
FDFC00
FFFF00
FFFFC0
FFFFE0
FFFFE0
FF0FF0
FC03F0
FC03F8
F801F8
F801F8
F801F8
F801F8
F801F8
F801F8
F801F8
FC03F8
FC03F0
FF0FF0
FFFFE0
FFFFE0
FFFFC0
FFFF00
FCFC00
FC0000
FC0000
FC0000
FC0000
FC0000
FC0000
FC0000
FC0000
FC0000
ENDCHAR
STARTCHAR 00FF
ENCODING 255
SWIDTH 576 0
DWIDTH 24 0
BBX 23 41 1 -10
BITMAP
0F87C0
0F87C0
0F87C0
0F87C0
0F87C0
000000
000000
000000
F8007E
FC007C
FC00FC
7E00F8
7E01F8
3E01F8
3F01F0
3F03F0
1F83E0
1F87E0
0F87E0
0FC7C0
0FCFC0
07EF80
07EF80
03FF80
03FF00
01FF00
01FF00
01FE00
00FE00
00FC00
00FC00
00FC00
00F800
01F800
01F000
01F000
03F000
03E000
03E000
07C000
07C000
ENDCHAR
ENDFONT
